<?xml version="1.0" encoding="UTF-8" standalone="no"?>
<!DOCTYPE svg PUBLIC "-//W3C//DTD SVG 1.1//EN" "http://www.w3.org/Graphics/SVG/1.1/DTD/svg11.dtd">
<svg xmlns="http://www.w3.org/2000/svg" xmlns:xlink="http://www.w3.org/1999/xlink" version="1.1" width="612pt" height="792pt" viewBox="0 0 612 792">
<g enable-background="new">
<clipPath id="cp0">
<path d="M 0 0 L 612 0 L 612 792 L 0 792 Z " fill-rule="evenodd"/>
</clipPath>
<g clip-path="url(#cp0)">
<path transform="matrix(.05,0,0,.05,0,0)" d="M 0 0 L 12240 0 L 12240 15840 L 0 15840 Z " fill="#ffffff"/>
</g>
<clipPath id="cp1">
<path d="M 66.6 72 L 193.1 72 L 193.1 113.9 L 66.6 113.9 Z " fill-rule="evenodd"/>
</clipPath>
<g clip-path="url(#cp1)">
<symbol id="font_2_2a">
<path d="M 0 0 L 0 .7109375 L .44677735 .7109375 L .44677735 .63378909 L .09423828 .63378909 L .09423828 .40527345 L .40185548 .40527345 L .40185548 .32861329 L .09423828 .32861329 L .09423828 .076660159 L .45166017 .076660159 L .45166017 0 L 0 0 Z "/>
</symbol>
<use xlink:href="#font_2_2a" transform="matrix(11,0,0,-11,72.907718,82.95)"/>
<symbol id="font_2_31">
<path d="M .43115235 .076660159 L .43115235 0 L 0 0 L 0 .7109375 L .09423828 .7109375 L .09423828 .076660159 L .43115235 .076660159 Z "/>
</symbol>
<use xlink:href="#font_2_31" transform="matrix(11,0,0,-11,79.157718,82.95)"/>
<use xlink:href="#font_2_2a" transform="matrix(11,0,0,-11,85.10771,82.95)"/>
<symbol id="font_2_32">
<path d="M .3540039 .13134766 L .5864258 .7109375 L .70751956 .7109375 L .70751956 0 L .61376956 0 L .61376956 .27734376 L .6230469 .57470706 L .38916017 0 L .3178711 0 L .084472659 .5756836 L .09375 .27734376 L .09375 0 L 0 0 L 0 .7109375 L .12109375 .7109375 L .3540039 .13134766 Z "/>
</symbol>
<use xlink:href="#font_2_32" transform="matrix(11,0,0,-11,91.407718,82.95)"/>
<use xlink:href="#font_2_2a" transform="matrix(11,0,0,-11,100.95772,82.95)"/>
<symbol id="font_2_33">
<path d="M .546875 .7109375 L .546875 0 L .45214845 0 L .09423828 .54833987 L .09423828 0 L 0 0 L 0 .7109375 L .09423828 .7109375 L .45361329 .16113281 L .45361329 .7109375 L .546875 .7109375 Z "/>
</symbol>
<use xlink:href="#font_2_33" transform="matrix(11,0,0,-11,107.20772,82.95)"/>
<symbol id="font_2_39">
<path d="M 0 .63378909 L 0 .7109375 L .5493164 .7109375 L .5493164 .63378909 L .32080079 .63378909 L .32080079 0 L .22802735 0 L .22802735 .63378909 L 0 .63378909 Z "/>
</symbol>
<use xlink:href="#font_2_39" transform="matrix(11,0,0,-11,114.41856,82.95)"/>
<symbol id="font_2_26">
<path d="M 0 0 L .2709961 .7109375 L .35351563 .7109375 L .6254883 0 L .5288086 0 L .4609375 .18603516 L .16357422 .18603516 L .096191409 0 L 0 0 M .19189453 .2631836 L .43310548 .2631836 L .3125 .59472659 L .19189453 .2631836 Z "/>
</symbol>
<use xlink:href="#font_2_26" transform="matrix(11,0,0,-11,120.90576,82.95)"/>
<symbol id="font_2_37">
<path d="M .41552735 0 L .26123048 .28808595 L .09423828 .28808595 L .09423828 0 L 0 0 L 0 .7109375 L .23535156 .7109375 C .31510417 .7109375 .37646485 .6927083 .4194336 .65625 C .46272788 .6197917 .484375 .56689456 .484375 .4975586 C .484375 .45328776 .47233073 .41455079 .4482422 .38134767 C .42447917 .34847007 .3914388 .32389323 .3491211 .3076172 L .5161133 .005859375 L .5161133 0 L .41552735 0 M .09423828 .63378909 L .09423828 .3647461 L .23828125 .3647461 C .28873698 .3647461 .32666017 .37760417 .35205079 .4033203 C .37776695 .42936198 .390625 .46077476 .390625 .4975586 C .390625 .5385742 .37825523 .57145187 .35351563 .5961914 C .32910157 .62125656 .28971354 .63378909 .23535156 .63378909 L .09423828 .63378909 Z "/>
</symbol>
<use xlink:href="#font_2_37" transform="matrix(11,0,0,-11,128.80771,82.95)"/>
<symbol id="font_2_3e">
<path d="M .107910159 .7109375 L .29248048 .3540039 L .47753907 .7109375 L .58447268 .7109375 L .33935548 .265625 L .33935548 0 L .24511719 0 L .24511719 .265625 L 0 .7109375 L .107910159 .7109375 Z "/>
</symbol>
<use xlink:href="#font_2_3e" transform="matrix(11,0,0,-11,134.78057,82.95)"/>
<symbol id="font_2_2b">
<path d="M 0 0 L 0 .7109375 L .4404297 .7109375 L .4404297 .63378909 L .09423828 .63378909 L .09423828 .39111329 L .39208985 .39111329 L .39208985 .31396485 L .09423828 .31396485 L .09423828 0 L 0 0 Z "/>
</symbol>
<use xlink:href="#font_2_2b" transform="matrix(11,0,0,-11,144.95772,82.95)"/>
<symbol id="font_2_2e">
<path d="M .09423828 .7109375 L .09423828 0 L 0 0 L 0 .7109375 L .09423828 .7109375 Z "/>
</symbol>
<use xlink:href="#font_2_2e" transform="matrix(11,0,0,-11,151.08292,82.95)"/>
<use xlink:href="#font_2_37" transform="matrix(11,0,0,-11,153.95772,82.95)"/>
<symbol id="font_2_38">
<path d="M .421875 .18945313 C .421875 .2220052 .41080729 .24804688 .38867188 .26757813 C .36686198 .28710938 .32080079 .3071289 .25048829 .32763673 C .18017578 .34847007 .12451172 .37483726 .083496097 .40673829 C .04280599 .43896485 .022460938 .48242188 .022460938 .5371094 C .022460938 .59244796 .044433595 .6385091 .088378909 .67529299 C .13264974 .71207687 .19124349 .73046877 .26416017 .73046877 C .34423829 .73046877 .40592448 .7084961 .44921876 .6645508 C .49283854 .62060549 .51464846 .57096359 .51464846 .515625 L .42089845 .515625 C .42089845 .55533859 .40804038 .5882161 .38232423 .6142578 C .35660807 .6402995 .31722007 .6533203 .26416017 .6533203 C .21402996 .6533203 .17692058 .6422526 .15283203 .6201172 C .12874349 .5983073 .11669922 .57096359 .11669922 .53808596 C .11669922 .50846359 .12939453 .48372398 .15478516 .4638672 C .1805013 .44433595 .22216797 .42643229 .27978517 .41015626 C .36214195 .38704429 .42220054 .35839845 .45996095 .32421876 C .49772135 .2903646 .51660159 .24576824 .51660159 .19042969 C .51660159 .13248699 .49397788 .08626302 .44873048 .051757814 C .40348307 .017252604 .34342448 0 .2685547 0 C .22493489 0 .18245442 .0081380209 .14111328 .024414063 C .100097659 .040690107 .06624349 .06477865 .03955078 .09667969 C .013183594 .12890625 0 .1686198 0 .21582031 L .09375 .21582031 C .09375 .1673177 .11149088 .1319987 .14697266 .10986328 C .18245442 .08772787 .22298177 .076660159 .2685547 .076660159 C .31770835 .076660159 .35546876 .086751308 .38183595 .106933597 C .40852867 .1274414 .421875 .15494792 .421875 .18945313 Z "/>
</symbol>
<use xlink:href="#font_2_38" transform="matrix(11,0,0,-11,160.33506,83.05742)"/>
<use xlink:href="#font_2_39" transform="matrix(11,0,0,-11,166.66855,82.95)"/>
<use xlink:href="#font_2_26" transform="matrix(11,0,0,-11,72.15576,98.399997)"/>
<use xlink:href="#font_2_2e" transform="matrix(11,0,0,-11,80.13291,98.399997)"/>
<symbol id="font_2_29">
<path d="M 0 0 L 0 .7109375 L .20117188 .7109375 C .29459635 .7109375 .3701172 .68082687 .42773438 .62060549 C .4856771 .56070968 .51464846 .47932945 .51464846 .37646485 L .51464846 .33398438 C .51464846 .2311198 .4855143 .14973958 .4272461 .08984375 C .36930339 .029947916 .29101563 0 .19238281 0 L 0 0 M .09423828 .63378909 L .09423828 .076660159 L .19238281 .076660159 C .26822917 .076660159 .32535807 .100097659 .36376954 .14697266 C .402181 .19384766 .42138673 .2561849 .42138673 .33398438 L .42138673 .3774414 C .42138673 .45914714 .402181 .52229818 .36376954 .56689456 C .32535807 .6114909 .27115885 .63378909 .20117188 .63378909 L .09423828 .63378909 Z "/>
</symbol>
<use xlink:href="#font_2_29" transform="matrix(11,0,0,-11,83.00771,98.399997)"/>
</g>
<clipPath id="cp3">
<path d="M 0 0 L 612 0 L 612 792 L 0 792 Z " fill-rule="evenodd"/>
</clipPath>
<g clip-path="url(#cp3)">
<path transform="matrix(.05,0,0,.05,72,72)" stroke-width="10" stroke-linecap="butt" stroke-miterlimit="4" stroke-linejoin="miter" fill="none" stroke="#000000" d="M -113 5 L 2427 5 "/>
<path transform="matrix(.05,0,0,.05,72,72)" stroke-width="10" stroke-linecap="butt" stroke-miterlimit="4" stroke-linejoin="miter" fill="none" stroke="#000000" d="M -113 833 L 2427 833 "/>
<path transform="matrix(.05,0,0,.05,72,72)" stroke-width="10" stroke-linecap="butt" stroke-miterlimit="4" stroke-linejoin="miter" fill="none" stroke="#000000" d="M -108 0 L -108 838 "/>
<path transform="matrix(.05,0,0,.05,72,72)" stroke-width="10" stroke-linecap="butt" stroke-miterlimit="4" stroke-linejoin="miter" fill="none" stroke="#000000" d="M 2422 0 L 2422 838 "/>
</g>
<clipPath id="cp4">
<path d="M 193.1 72 L 306 72 L 306 113.9 L 193.1 113.9 Z " fill-rule="evenodd"/>
</clipPath>
<g clip-path="url(#cp4)">
<symbol id="font_2_15">
<path d="M .44921876 .31347657 C .44921876 .19694011 .42903648 .1155599 .38867188 .06933594 C .3486328 .023111979 .29410807 0 .22509766 0 C .15804036 0 .104003909 .022460938 .06298828 .06738281 C .022298178 .11230469 .0013020834 .19059246 0 .3022461 L 0 .421875 C 0 .53808596 .020345053 .61848959 .061035158 .66308596 C .10172526 .7080078 .15608724 .73046877 .2241211 .73046877 C .29215495 .73046877 .34635417 .7086589 .38671876 .66503909 C .42708335 .6217448 .44791667 .5444336 .44921876 .43310548 L .44921876 .31347657 M .35839845 .43701173 C .35839845 .51708987 .34700523 .57373049 .32421876 .6069336 C .30143229 .6401367 .2680664 .6567383 .2241211 .6567383 C .18180339 .6567383 .14908855 .640625 .12597656 .60839846 C .1031901 .5761719 .09147135 .5213216 .09082031 .44384767 L .09082031 .29882813 C .09082031 .21940105 .102376308 .16210938 .12548828 .12695313 C .14892578 .091796878 .1821289 .07421875 .22509766 .07421875 C .26904298 .07421875 .30208335 .09147135 .32421876 .12597656 C .3466797 .1608073 .3580729 .21712239 .35839845 .29492188 L .35839845 .43701173 Z "/>
</symbol>
<use xlink:href="#font_2_15" transform="matrix(11,0,0,-11,199.11768,83.05742)"/>
<symbol id="font_2_1a">
<path d="M .09814453 .34814454 L .025878907 .36669923 L .061523439 .7207031 L .42626954 .7207031 L .42626954 .63720706 L .1381836 .63720706 L .11669922 .44384767 C .15250652 .46435548 .1920573 .47460938 .23535156 .47460938 C .30078126 .47460938 .3523763 .45296226 .39013673 .40966798 C .42822267 .36669923 .44726563 .30891929 .44726563 .23632813 C .44726563 .16829427 .42871095 .111816409 .39160157 .06689453 C .3544922 .022298178 .2980143 0 .22216797 0 C .16455078 0 .114746097 .016113282 .072753909 .048339845 C .030761719 .08089193 .0065104167 .1303711 0 .19677735 L .0859375 .19677735 C .09733073 .11507162 .14274089 .07421875 .22216797 .07421875 C .2648112 .07421875 .29785157 .08870443 .32128907 .11767578 C .34472657 .14664714 .3564453 .18587239 .3564453 .23535156 C .3564453 .2799479 .34407554 .3173828 .31933595 .34765626 C .29492188 .37825523 .25992839 .3935547 .21435547 .3935547 C .18408203 .3935547 .16113281 .3894857 .14550781 .38134767 C .12988281 .37320964 .114095058 .36214195 .09814453 .34814454 Z "/>
</symbol>
<use xlink:href="#font_2_1a" transform="matrix(11,0,0,-11,205.47714,83.05742)"/>
<symbol id="font_2_13">
<path d="M 0 .053710939 C 0 .069010417 .0047200524 .08186849 .014160156 .092285159 C .023925782 .103027347 .037923177 .10839844 .056152345 .10839844 C .07438151 .10839844 .08821615 .103027347 .09765625 .092285159 C .107421878 .08186849 .11230469 .069010417 .11230469 .053710939 C .11230469 .03873698 .107421878 .026041666 .09765625 .015625 C .08821615 .0052083337 .07438151 0 .056152345 0 C .037923177 0 .023925782 .0052083337 .014160156 .015625 C .0047200524 .026041666 0 .03873698 0 .053710939 Z "/>
</symbol>
<use xlink:href="#font_2_13" transform="matrix(11,0,0,-11,211.57344,83.01445)"/>
<symbol id="font_2_16">
<path d="M .27246095 .71484377 L .27246095 0 L .1821289 0 L .1821289 .6020508 L 0 .53564456 L 0 .6171875 L .25830079 .71484377 L .27246095 .71484377 Z "/>
</symbol>
<use xlink:href="#font_2_16" transform="matrix(11,0,0,-11,214.61846,82.95)"/>
<use xlink:href="#font_2_15" transform="matrix(11,0,0,-11,220.46768,83.05742)"/>
<use xlink:href="#font_2_13" transform="matrix(11,0,0,-11,226.77344,83.01445)"/>
<symbol id="font_2_17">
<path d="M .4790039 .07421875 L .4790039 0 L .013671875 0 L .013671875 .064941409 L .2548828 .3334961 C .29459635 .37841798 .32128907 .4140625 .33496095 .4404297 C .34895835 .46679688 .35595704 .4933268 .35595704 .52001956 C .35595704 .5548503 .3450521 .58463546 .3232422 .609375 C .3017578 .63411459 .27132163 .6464844 .2319336 .6464844 C .18440755 .6464844 .14892578 .6329753 .12548828 .60595706 C .10205078 .5789388 .09033203 .5442708 .09033203 .5019531 L 0 .5019531 C 0 .56184896 .01969401 .61328127 .05908203 .65625 C .098470058 .69921877 .15608724 .7207031 .2319336 .7207031 C .29899089 .7207031 .35139976 .7032878 .38916017 .66845706 C .4272461 .6336263 .44628907 .58772787 .44628907 .5307617 C .44628907 .48909507 .433431 .44710288 .40771485 .40478517 C .3819987 .36279298 .3504232 .3214518 .31298829 .28076173 L .122558597 .07421875 L .4790039 .07421875 Z "/>
</symbol>
<use xlink:href="#font_2_17" transform="matrix(11,0,0,-11,229.35489,82.95)"/>
<use xlink:href="#font_2_15" transform="matrix(11,0,0,-11,235.61768,83.05742)"/>
<use xlink:href="#font_2_16" transform="matrix(11,0,0,-11,242.11846,82.95)"/>
<symbol id="font_2_1d">
<path d="M .45214845 .20214844 C .45214845 .13704427 .43033854 .08707682 .38671876 .052246095 C .34342448 .017415366 .2898763 0 .22607422 0 C .16227214 0 .108561199 .017415366 .064941409 .052246095 C .021647135 .08707682 0 .13704427 0 .20214844 C 0 .24186199 .010579427 .27685548 .03173828 .3071289 C .053222658 .33772788 .08219401 .36083985 .118652347 .37646485 C .08707682 .3917643 .06201172 .41341148 .04345703 .44140626 C .025227866 .46940104 .016113282 .5008138 .016113282 .53564456 C .016113282 .59781906 .035807294 .6458333 .07519531 .6796875 C .11490885 .7135417 .16503906 .73046877 .22558594 .73046877 C .28645835 .73046877 .33658854 .7135417 .37597657 .6796875 C .4156901 .6458333 .43554688 .59781906 .43554688 .53564456 C .43554688 .5004883 .42610679 .46891276 .40722657 .44091798 C .38834635 .4132487 .3631185 .3917643 .33154298 .37646485 C .3683268 .36083985 .3976237 .33772788 .4194336 .3071289 C .4412435 .27652995 .45214845 .24153646 .45214845 .20214844 M .34521485 .5341797 C .34521485 .56966146 .33414714 .5987956 .31201173 .62158206 C .2898763 .64469406 .26106773 .65625 .22558594 .65625 C .19010417 .65625 .16145833 .6451823 .13964844 .6230469 C .11783854 .601237 .106933597 .57161459 .106933597 .5341797 C .106933597 .49739585 .11783854 .4679362 .13964844 .44580079 C .16145833 .42366538 .19026692 .41259767 .22607422 .41259767 C .261556 .41259767 .2902018 .42366538 .31201173 .44580079 C .33414714 .4679362 .34521485 .49739585 .34521485 .5341797 M .36132813 .20410156 C .36132813 .24381511 .3486328 .27620445 .3232422 .30126954 C .2981771 .32633464 .26546226 .3388672 .22509766 .3388672 C .18375652 .3388672 .1508789 .32633464 .12646485 .30126954 C .102376308 .27620445 .09033203 .24381511 .09033203 .20410156 C .09033203 .16308594 .102376308 .13118489 .12646485 .10839844 C .1508789 .08561198 .18408203 .07421875 .22607422 .07421875 C .2680664 .07421875 .30110679 .08561198 .3251953 .10839844 C .34928385 .13118489 .36132813 .16308594 .36132813 .20410156 Z "/>
</symbol>
<use xlink:href="#font_2_1d" transform="matrix(11,0,0,-11,247.95157,83.05742)"/>
</g>
<clipPath id="cp5">
<path d="M 0 0 L 612 0 L 612 792 L 0 792 Z " fill-rule="evenodd"/>
</clipPath>
<g clip-path="url(#cp5)">
<path transform="matrix(.05,0,0,.05,72,72)" stroke-width="10" stroke-linecap="butt" stroke-miterlimit="4" stroke-linejoin="miter" fill="none" stroke="#000000" d="M 2422 5 L 4685 5 "/>
<path transform="matrix(.05,0,0,.05,72,72)" stroke-width="10" stroke-linecap="butt" stroke-miterlimit="4" stroke-linejoin="miter" fill="none" stroke="#000000" d="M 2422 833 L 4685 833 "/>
<path transform="matrix(.05,0,0,.05,72,72)" stroke-width="10" stroke-linecap="butt" stroke-miterlimit="4" stroke-linejoin="miter" fill="none" stroke="#000000" d="M 4680 0 L 4680 838 "/>
</g>
<clipPath id="cp6">
<path d="M 306 72 L 425.7 72 L 425.7 113.9 L 306 113.9 Z " fill-rule="evenodd"/>
</clipPath>
<g clip-path="url(#cp6)">
<use xlink:href="#font_2_15" transform="matrix(11,0,0,-11,312.01768,83.05742)"/>
<symbol id="font_2_19">
<path d="M 0 .21826172 L .31835938 .7109375 L .41455079 .7109375 L .41455079 .23925781 L .5136719 .23925781 L .5136719 .16503906 L .41455079 .16503906 L .41455079 0 L .32421876 0 L .32421876 .16503906 L 0 .16503906 L 0 .21826172 M .10253906 .23925781 L .32421876 .23925781 L .32421876 .5883789 L .31298829 .5683594 L .10253906 .23925781 Z "/>
</symbol>
<use xlink:href="#font_2_19" transform="matrix(11,0,0,-11,317.83467,82.95)"/>
<use xlink:href="#font_2_13" transform="matrix(11,0,0,-11,324.47343,83.01445)"/>
<use xlink:href="#font_2_16" transform="matrix(11,0,0,-11,327.51847,82.95)"/>
<use xlink:href="#font_2_15" transform="matrix(11,0,0,-11,333.36769,83.05742)"/>
<use xlink:href="#font_2_13" transform="matrix(11,0,0,-11,339.67344,83.01445)"/>
<use xlink:href="#font_2_17" transform="matrix(11,0,0,-11,342.25489,82.95)"/>
<use xlink:href="#font_2_15" transform="matrix(11,0,0,-11,348.51768,83.05742)"/>
<use xlink:href="#font_2_17" transform="matrix(11,0,0,-11,354.6049,82.95)"/>
<symbol id="font_2_18">
<path d="M .14453125 .33544923 L .14453125 .40966798 L .2109375 .40966798 C .25748698 .4099935 .29215495 .42171226 .3149414 .44482423 C .33772788 .4679362 .3491211 .49674479 .3491211 .53125 C .3491211 .6145833 .30777995 .65625 .22509766 .65625 C .1866862 .65625 .15559896 .6451823 .13183594 .6230469 C .108072917 .601237 .096191409 .57177737 .096191409 .53466799 L .005859375 .53466799 C .005859375 .58902999 .025878907 .6352539 .06591797 .67333987 C .106282558 .7114258 .15934246 .73046877 .22509766 .73046877 C .28922526 .73046877 .34098307 .7133789 .3803711 .6791992 C .42008464 .64534506 .4399414 .5953776 .4399414 .5292969 C .4399414 .5029297 .4309896 .47477214 .41308595 .44482423 C .3955078 .4148763 .3671875 .39160157 .328125 .375 C .37532554 .35970054 .4075521 .33610026 .4248047 .30419923 C .44205729 .2722982 .4506836 .24023438 .4506836 .20800781 C .4506836 .14160156 .42919923 .09033203 .38623048 .05419922 C .34326173 .018066407 .28971354 0 .22558594 0 C .16373699 0 .110677089 .017089844 .06640625 .05126953 C .022135416 .08577474 0 .13460286 0 .1977539 L .09033203 .1977539 C .09033203 .16031902 .102376308 .1303711 .12646485 .107910159 C .1508789 .08544922 .18391927 .07421875 .22558594 .07421875 C .2669271 .07421875 .29964195 .085123699 .32373048 .106933597 C .347819 .12874349 .35986329 .16178386 .35986329 .20605469 C .35986329 .25032554 .3461914 .2828776 .31884767 .30371095 C .2915039 .32486979 .2548828 .33544923 .20898438 .33544923 L .14453125 .33544923 Z "/>
</symbol>
<use xlink:href="#font_2_18" transform="matrix(11,0,0,-11,360.76026,83.05742)"/>
</g>
<clipPath id="cp7">
<path d="M 0 0 L 612 0 L 612 792 L 0 792 Z " fill-rule="evenodd"/>
</clipPath>
<g clip-path="url(#cp7)">
<path transform="matrix(.05,0,0,.05,72,72)" stroke-width="10" stroke-linecap="butt" stroke-miterlimit="4" stroke-linejoin="miter" fill="none" stroke="#000000" d="M 4680 5 L 7079 5 "/>
<path transform="matrix(.05,0,0,.05,72,72)" stroke-width="10" stroke-linecap="butt" stroke-miterlimit="4" stroke-linejoin="miter" fill="none" stroke="#000000" d="M 4680 833 L 7079 833 "/>
<path transform="matrix(.05,0,0,.05,72,72)" stroke-width="10" stroke-linecap="butt" stroke-miterlimit="4" stroke-linejoin="miter" fill="none" stroke="#000000" d="M 7074 0 L 7074 838 "/>
</g>
<clipPath id="cp8">
<path d="M 425.7 72 L 545.4 72 L 545.4 113.9 L 425.7 113.9 Z " fill-rule="evenodd"/>
</clipPath>
<g clip-path="url(#cp8)">
<use xlink:href="#font_2_15" transform="matrix(11,0,0,-11,431.71769,83.05742)"/>
<use xlink:href="#font_2_1a" transform="matrix(11,0,0,-11,438.07716,83.05742)"/>
<use xlink:href="#font_2_17" transform="matrix(11,0,0,-11,443.90489,82.95)"/>
<symbol id="font_2_1b">
<path d="M .44921876 .24169922 C .44921876 .1743164 .43033854 .1171875 .39257813 .0703125 C .35514323 .0234375 .30045573 0 .22851563 0 C .17740886 0 .13492839 .013509114 .10107422 .040527345 C .067220058 .067871097 .041829427 .102376308 .024902344 .14404297 C .008300781 .18603516 0 .2290039 0 .27294923 L 0 .3154297 C 0 .38216148 .009277344 .4466146 .027832032 .50878909 C .04671224 .57096359 .080729167 .62190756 .12988281 .6616211 C .17903646 .70166018 .24934896 .7216797 .3408203 .7216797 L .3486328 .7216797 L .3486328 .64501956 C .28548179 .64501956 .23632813 .63395187 .20117188 .6118164 C .16634114 .58968099 .14029949 .5608724 .123046878 .5253906 C .10611979 .49023438 .09586588 .45247398 .092285159 .41210938 C .13004558 .4547526 .18098958 .47607423 .24511719 .47607423 C .29231773 .47607423 .33089195 .464681 .36083985 .44189454 C .39111329 .41910807 .41341148 .38964845 .42773438 .35351563 C .44205729 .31770835 .44921876 .2804362 .44921876 .24169922 M .09082031 .27001954 C .09082031 .20686849 .10481771 .15852864 .1328125 .125 C .16113281 .09147135 .19303386 .07470703 .22851563 .07470703 C .27018229 .07470703 .30240885 .08984375 .3251953 .12011719 C .34830729 .15071614 .35986329 .18977864 .35986329 .23730469 C .35986329 .2796224 .34928385 .31754557 .328125 .35107423 C .30696617 .38460288 .27441407 .4013672 .23046875 .4013672 C .19889324 .4013672 .17024739 .3919271 .14453125 .37304688 C .1188151 .35416667 .10091146 .33121745 .09082031 .30419923 L .09082031 .27001954 Z "/>
</symbol>
<use xlink:href="#font_2_1b" transform="matrix(11,0,0,-11,450.31437,83.05742)"/>
<symbol id="font_2_1e">
<path d="M .44726563 .4013672 C .44726563 .35514323 .44319663 .308431 .4350586 .26123048 C .4272461 .21435547 .41178385 .1710612 .38867188 .13134766 C .3658854 .09195963 .33203126 .060221357 .28710938 .036132814 C .24251302 .0120442709 .18017578 0 .100097659 0 L .100097659 .076660159 C .17203777 .076660159 .22542317 .087890628 .2602539 .11035156 C .29541017 .1328125 .31982423 .16210938 .3334961 .19824219 C .3474935 .23470052 .355306 .2734375 .3569336 .31445313 C .33805339 .2919922 .3154297 .27376304 .2890625 .25976563 C .2626953 .24576824 .23404949 .23876953 .203125 .23876953 C .15625 .23876953 .11783854 .25048829 .087890628 .27392579 C .057942708 .29736329 .035807294 .32714845 .021484375 .36328126 C .0071614587 .3997396 0 .43733726 0 .47607423 C 0 .54378256 .018554688 .6015625 .055664064 .64941409 C .09309896 .6975911 .14811199 .7216797 .22070313 .7216797 C .2747396 .7216797 .31835938 .7076823 .3515625 .6796875 C .38509117 .6516927 .40934245 .61572268 .4243164 .57177737 C .43961589 .52783206 .44726563 .4819336 .44726563 .43408204 L .44726563 .4013672 M .08886719 .48095704 C .08886719 .4386393 .09944662 .40022788 .12060547 .36572267 C .14208985 .33121745 .17447917 .31396485 .21777344 .31396485 C .24869792 .31396485 .27669273 .3232422 .3017578 .34179688 C .32714845 .36035157 .34570313 .38330079 .35742188 .41064454 L .35742188 .44628907 C .35742188 .5110677 .34358726 .56070968 .31591798 .59521487 C .28857423 .62972006 .25683595 .64697268 .22070313 .64697268 C .17871094 .64697268 .14615886 .63102218 .123046878 .5991211 C .100260417 .5675456 .08886719 .52815756 .08886719 .48095704 Z "/>
</symbol>
<use xlink:href="#font_2_1e" transform="matrix(11,0,0,-11,456.2871,82.96074)"/>
</g>
<clipPath id="cp9">
<path d="M 0 0 L 612 0 L 612 792 L 0 792 Z " fill-rule="evenodd"/>
</clipPath>
<g clip-path="url(#cp9)">
<path transform="matrix(.05,0,0,.05,72,72)" stroke-width="10" stroke-linecap="butt" stroke-miterlimit="4" stroke-linejoin="miter" fill="none" stroke="#000000" d="M 7074 5 L 9473 5 "/>
<path transform="matrix(.05,0,0,.05,72,72)" stroke-width="10" stroke-linecap="butt" stroke-miterlimit="4" stroke-linejoin="miter" fill="none" stroke="#000000" d="M 7074 833 L 9473 833 "/>
<path transform="matrix(.05,0,0,.05,72,72)" stroke-width="10" stroke-linecap="butt" stroke-miterlimit="4" stroke-linejoin="miter" fill="none" stroke="#000000" d="M 9468 0 L 9468 838 "/>
</g>
<clipPath id="cp10">
<path d="M 66.6 113.9 L 193.1 113.9 L 193.1 170.75 L 66.6 170.75 Z " fill-rule="evenodd"/>
</clipPath>
<g clip-path="url(#cp10)">
<use xlink:href="#font_2_38" transform="matrix(11,0,0,-11,72.43506,124.45742)"/>
<use xlink:href="#font_2_2a" transform="matrix(11,0,0,-11,79.407718,124.35)"/>
<symbol id="font_2_28">
<path d="M .453125 .23583985 L .546875 .23583985 C .53971359 .16845703 .51432296 .11230469 .47070313 .06738281 C .42708335 .022460938 .36263023 0 .27734376 0 C .19466146 0 .12792969 .029459635 .07714844 .088378909 C .026692709 .1476237 .0009765625 .22623699 0 .32421876 L 0 .40039063 C 0 .5 .025553385 .57991537 .076660159 .6401367 C .12809246 .7003581 .1977539 .73046877 .28564454 .73046877 C .3660482 .73046877 .42789714 .7083333 .4711914 .6640625 C .51448568 .6197917 .53971359 .5626628 .546875 .49267579 L .453125 .49267579 C .44596354 .54215499 .43001304 .58121749 .40527345 .6098633 C .38053385 .63883468 .34065757 .6533203 .28564454 .6533203 C .22281902 .6533203 .1751302 .6302083 .14257813 .5839844 C .11002604 .53776046 .09375 .47688804 .09375 .4013672 L .09375 .32958985 C .09375 .25960288 .108561199 .1998698 .1381836 .15039063 C .16780599 .10123698 .2141927 .076660159 .27734376 .076660159 C .3372396 .076660159 .37939454 .090657558 .4038086 .118652347 C .4285482 .14664714 .44498698 .18570964 .453125 .23583985 Z "/>
</symbol>
<use xlink:href="#font_2_28" transform="matrix(11,0,0,-11,85.39453,124.45742)"/>
<symbol id="font_2_3a">
<path d="M .42089845 .7207031 L .51464846 .7207031 L .51464846 .2397461 C .51464846 .15966797 .48893229 .099609378 .4375 .059570314 C .38606773 .019856772 .32584635 0 .25683595 0 C .1842448 0 .12320963 .019856772 .07373047 .059570314 C .024576823 .099609378 0 .15966797 0 .2397461 L 0 .7207031 L .09326172 .7207031 L .09326172 .2397461 C .09326172 .18408203 .10823568 .14290364 .1381836 .11621094 C .16845703 .08984375 .20800781 .076660159 .25683595 .076660159 C .3063151 .076660159 .34602867 .08984375 .37597657 .11621094 C .40592448 .14290364 .42089845 .18408203 .42089845 .2397461 L .42089845 .7207031 Z "/>
</symbol>
<use xlink:href="#font_2_3a" transform="matrix(11,0,0,-11,92.651958,124.45742)"/>
<use xlink:href="#font_2_37" transform="matrix(11,0,0,-11,99.95772,124.35)"/>
<use xlink:href="#font_2_2e" transform="matrix(11,0,0,-11,106.88291,124.35)"/>
<use xlink:href="#font_2_39" transform="matrix(11,0,0,-11,109.11856,124.35)"/>
<use xlink:href="#font_2_3e" transform="matrix(11,0,0,-11,115.53056,124.35)"/>
<use xlink:href="#font_2_26" transform="matrix(11,0,0,-11,72.15576,139.8)"/>
<symbol id="font_2_3c">
<path d="M .8359375 .7109375 L .6640625 0 L .5786133 0 L .4321289 .5180664 L .42089845 .5722656 L .40966798 .5180664 L .2578125 0 L .17236328 0 L 0 .7109375 L .09375 .7109375 L .20605469 .22460938 L .22021485 .1303711 L .2397461 .21484375 L .38085938 .7109375 L .45947267 .7109375 L .5966797 .21484375 L .6166992 .12841797 L .63183596 .22509766 L .7416992 .7109375 L .8359375 .7109375 Z "/>
</symbol>
<use xlink:href="#font_2_3c" transform="matrix(11,0,0,-11,79.47764,139.8)"/>
<use xlink:href="#font_2_26" transform="matrix(11,0,0,-11,89.10576,139.8)"/>
<use xlink:href="#font_2_37" transform="matrix(11,0,0,-11,97.00771,139.8)"/>
<use xlink:href="#font_2_2a" transform="matrix(11,0,0,-11,103.80772,139.8)"/>
<use xlink:href="#font_2_33" transform="matrix(11,0,0,-11,110.10771,139.8)"/>
<use xlink:href="#font_2_2a" transform="matrix(11,0,0,-11,117.907718,139.8)"/>
<use xlink:href="#font_2_38" transform="matrix(11,0,0,-11,123.68506,139.90743)"/>
<use xlink:href="#font_2_38" transform="matrix(11,0,0,-11,130.18506,139.90743)"/>
<use xlink:href="#font_2_39" transform="matrix(11,0,0,-11,72.268558,155.25)"/>
<use xlink:href="#font_2_37" transform="matrix(11,0,0,-11,79.50771,155.25)"/>
<use xlink:href="#font_2_26" transform="matrix(11,0,0,-11,85.55576,155.25)"/>
<use xlink:href="#font_2_2e" transform="matrix(11,0,0,-11,93.53291,155.25)"/>
<use xlink:href="#font_2_33" transform="matrix(11,0,0,-11,96.45772,155.25)"/>
<use xlink:href="#font_2_2e" transform="matrix(11,0,0,-11,104.33291,155.25)"/>
<use xlink:href="#font_2_33" transform="matrix(11,0,0,-11,107.20772,155.25)"/>
<symbol id="font_2_2c">
<path d="M .54833987 .36376954 L .54833987 .103515628 C .53499349 .083984378 .50960287 .061848958 .47216798 .037109376 C .43473307 .012369792 .3763021 0 .296875 0 C .21028646 0 .13916016 .029622397 .083496097 .08886719 C .027832032 .1484375 0 .23144531 0 .33789063 L 0 .3930664 C 0 .4988607 .024739584 .58154299 .07421875 .6411133 C .123697917 .7006836 .19433594 .73046877 .2861328 .73046877 C .36751304 .73046877 .42919923 .70996096 .4711914 .6689453 C .5135091 .6279297 .5392253 .5758464 .54833987 .5126953 L .45410157 .5126953 C .44759117 .55110678 .43147788 .58414718 .40576173 .6118164 C .3803711 .63948568 .34049479 .6533203 .2861328 .6533203 C .22070313 .6533203 .17252605 .6302083 .14160156 .5839844 C .110677089 .53808596 .095052089 .47558595 .09472656 .39648438 L .09472656 .33789063 C .09472656 .25585938 .11328125 .19173177 .15039063 .14550781 C .1875 .099609378 .23649089 .076660159 .29736329 .076660159 C .347819 .076660159 .38427735 .08251953 .40673829 .09423828 C .42919923 .106282558 .44514976 .11767578 .45458985 .12841797 L .45458985 .28759767 L .29003907 .28759767 L .29003907 .36376954 L .54833987 .36376954 Z "/>
</symbol>
<use xlink:href="#font_2_2c" transform="matrix(11,0,0,-11,114.75528,155.35742)"/>
</g>
<clipPath id="cp11">
<path d="M 0 0 L 612 0 L 612 792 L 0 792 Z " fill-rule="evenodd"/>
</clipPath>
<g clip-path="url(#cp11)">
<path transform="matrix(.05,0,0,.05,72,72)" stroke-width="10" stroke-linecap="butt" stroke-miterlimit="4" stroke-linejoin="miter" fill="none" stroke="#000000" d="M -113 1970 L 2427 1970 "/>
<path transform="matrix(.05,0,0,.05,72,72)" stroke-width="10" stroke-linecap="butt" stroke-miterlimit="4" stroke-linejoin="miter" fill="none" stroke="#000000" d="M -108 838 L -108 1975 "/>
<path transform="matrix(.05,0,0,.05,72,72)" stroke-width="10" stroke-linecap="butt" stroke-miterlimit="4" stroke-linejoin="miter" fill="none" stroke="#000000" d="M 2422 838 L 2422 1975 "/>
</g>
<clipPath id="cp12">
<path d="M 193.1 113.9 L 306 113.9 L 306 170.75 L 193.1 170.75 Z " fill-rule="evenodd"/>
</clipPath>
<g clip-path="url(#cp12)">
<use xlink:href="#font_2_16" transform="matrix(11,0,0,-11,199.41846,124.35)"/>
<use xlink:href="#font_2_17" transform="matrix(11,0,0,-11,205.15488,124.35)"/>
<use xlink:href="#font_2_13" transform="matrix(11,0,0,-11,211.57344,124.41445)"/>
<use xlink:href="#font_2_13" transform="matrix(11,0,0,-11,214.47344,124.41445)"/>
<use xlink:href="#font_2_16" transform="matrix(11,0,0,-11,217.46846,124.35)"/>
<use xlink:href="#font_2_15" transform="matrix(11,0,0,-11,223.31768,124.45742)"/>
<use xlink:href="#font_2_13" transform="matrix(11,0,0,-11,229.62345,124.41445)"/>
<use xlink:href="#font_2_17" transform="matrix(11,0,0,-11,232.20488,124.35)"/>
<use xlink:href="#font_2_15" transform="matrix(11,0,0,-11,238.51767,124.45742)"/>
<use xlink:href="#font_2_16" transform="matrix(11,0,0,-11,244.96846,124.35)"/>
<use xlink:href="#font_2_1d" transform="matrix(11,0,0,-11,250.80156,124.45742)"/>
</g>
<clipPath id="cp13">
<path d="M 0 0 L 612 0 L 612 792 L 0 792 Z " fill-rule="evenodd"/>
</clipPath>
<g clip-path="url(#cp13)">
<path transform="matrix(.05,0,0,.05,72,72)" stroke-width="10" stroke-linecap="butt" stroke-miterlimit="4" stroke-linejoin="miter" fill="none" stroke="#000000" d="M 2422 1970 L 4685 1970 "/>
<path transform="matrix(.05,0,0,.05,72,72)" stroke-width="10" stroke-linecap="butt" stroke-miterlimit="4" stroke-linejoin="miter" fill="none" stroke="#000000" d="M 4680 838 L 4680 1975 "/>
<path transform="matrix(.05,0,0,.05,72,72)" stroke-width="10" stroke-linecap="butt" stroke-miterlimit="4" stroke-linejoin="miter" fill="none" stroke="#000000" d="M 4680 1970 L 7079 1970 "/>
<path transform="matrix(.05,0,0,.05,72,72)" stroke-width="10" stroke-linecap="butt" stroke-miterlimit="4" stroke-linejoin="miter" fill="none" stroke="#000000" d="M 7074 838 L 7074 1975 "/>
</g>
<clipPath id="cp14">
<path d="M 425.7 113.9 L 545.4 113.9 L 545.4 170.75 L 425.7 170.75 Z " fill-rule="evenodd"/>
</clipPath>
<g clip-path="url(#cp14)">
<use xlink:href="#font_2_15" transform="matrix(11,0,0,-11,431.71769,124.45742)"/>
<use xlink:href="#font_2_1a" transform="matrix(11,0,0,-11,438.07716,124.45742)"/>
<use xlink:href="#font_2_16" transform="matrix(11,0,0,-11,444.31846,124.35)"/>
<symbol id="font_2_1c">
<path d="M .48046876 .7109375 L .48046876 .66015627 L .18603516 0 L .09082031 0 L .38476563 .63671877 L 0 .63671877 L 0 .7109375 L .48046876 .7109375 Z "/>
</symbol>
<use xlink:href="#font_2_1c" transform="matrix(11,0,0,-11,450.01896,124.35)"/>
<use xlink:href="#font_2_1e" transform="matrix(11,0,0,-11,456.2871,124.36074)"/>
</g>
<clipPath id="cp15">
<path d="M 0 0 L 612 0 L 612 792 L 0 792 Z " fill-rule="evenodd"/>
</clipPath>
<g clip-path="url(#cp15)">
<path transform="matrix(.05,0,0,.05,72,72)" stroke-width="10" stroke-linecap="butt" stroke-miterlimit="4" stroke-linejoin="miter" fill="none" stroke="#000000" d="M 7074 1970 L 9473 1970 "/>
<path transform="matrix(.05,0,0,.05,72,72)" stroke-width="10" stroke-linecap="butt" stroke-miterlimit="4" stroke-linejoin="miter" fill="none" stroke="#000000" d="M 9468 838 L 9468 1975 "/>
</g>
<clipPath id="cp16">
<path d="M 66.6 170.75 L 193.1 170.75 L 193.1 212.15 L 66.6 212.15 Z " fill-rule="evenodd"/>
</clipPath>
<g clip-path="url(#cp16)">
<use xlink:href="#font_2_2b" transform="matrix(11,0,0,-11,72.907718,181.2)"/>
<use xlink:href="#font_2_2e" transform="matrix(11,0,0,-11,79.03291,181.2)"/>
<use xlink:href="#font_2_37" transform="matrix(11,0,0,-11,81.907718,181.2)"/>
<use xlink:href="#font_2_2a" transform="matrix(11,0,0,-11,88.75771,181.2)"/>
<symbol id="font_2_35">
<path d="M .09423828 .2788086 L .09423828 0 L 0 0 L 0 .7109375 L .26220704 .7109375 C .3429362 .7109375 .4046224 .69059249 .44726563 .64990237 C .49023438 .6092122 .51171877 .5572917 .51171877 .49414063 C .51171877 .42545573 .49023438 .37239585 .44726563 .33496095 C .4046224 .29752604 .3429362 .2788086 .26220704 .2788086 L .09423828 .2788086 M .09423828 .63378909 L .09423828 .35546876 L .26220704 .35546876 C .31754557 .35546876 .35725913 .3683268 .38134767 .39404298 C .4054362 .41975913 .41748048 .45279948 .41748048 .49316407 C .41748048 .5296224 .4054362 .5621745 .38134767 .5908203 C .35725913 .6194661 .31754557 .63378909 .26220704 .63378909 L .09423828 .63378909 Z "/>
</symbol>
<use xlink:href="#font_2_35" transform="matrix(11,0,0,-11,97.75771,181.2)"/>
<use xlink:href="#font_2_37" transform="matrix(11,0,0,-11,104.70772,181.2)"/>
<use xlink:href="#font_2_2a" transform="matrix(11,0,0,-11,111.50772,181.2)"/>
<symbol id="font_2_3b">
<path d="M .609375 .7109375 L .3461914 0 L .2626953 0 L 0 .7109375 L .10205078 .7109375 L .30371095 .125 L .5073242 .7109375 L .609375 .7109375 Z "/>
</symbol>
<use xlink:href="#font_2_3b" transform="matrix(11,0,0,-11,117.05576,181.2)"/>
<use xlink:href="#font_2_2a" transform="matrix(11,0,0,-11,124.80772,181.2)"/>
<use xlink:href="#font_2_33" transform="matrix(11,0,0,-11,131.10771,181.2)"/>
<use xlink:href="#font_2_39" transform="matrix(11,0,0,-11,138.26856,181.2)"/>
<use xlink:href="#font_2_2e" transform="matrix(11,0,0,-11,145.58292,181.2)"/>
<symbol id="font_2_34">
<path d="M .57177737 .34277345 C .57177737 .23600261 .54589846 .15218099 .49414063 .091308597 C .4423828 .030436198 .37320964 0 .2866211 0 C .2023112 0 .13346355 .030436198 .080078128 .091308597 C .026692709 .15218099 0 .23600261 0 .34277345 L 0 .3876953 C 0 .49414063 .026529948 .5777995 .079589847 .6386719 C .13264974 .6998698 .20133464 .73046877 .28564454 .73046877 C .37158204 .73046877 .4404297 .7003581 .4921875 .6401367 C .5442708 .5802409 .5708008 .49804688 .57177737 .3935547 L .57177737 .34277345 M .47851563 .38867188 C .47851563 .47330729 .46158854 .53808596 .42773438 .5830078 C .39388023 .6279297 .34651695 .6503906 .28564454 .6503906 C .2273763 .6503906 .18066406 .6279297 .14550781 .5830078 C .110677089 .53808596 .09326172 .47330729 .09326172 .38867188 L .09326172 .34277345 C .09326172 .25748698 .110839847 .19222005 .1459961 .14697266 C .18147786 .10205078 .22835286 .079589847 .2866211 .079589847 C .347819 .079589847 .39501954 .10205078 .42822267 .14697266 C .4617513 .19222005 .47851563 .25748698 .47851563 .34277345 L .47851563 .38867188 Z "/>
</symbol>
<use xlink:href="#font_2_34" transform="matrix(11,0,0,-11,148.18917,181.30742)"/>
<use xlink:href="#font_2_33" transform="matrix(11,0,0,-11,156.05771,181.2)"/>
<use xlink:href="#font_2_26" transform="matrix(11,0,0,-11,72.15576,196.65)"/>
<use xlink:href="#font_2_33" transform="matrix(11,0,0,-11,80.05772,196.65)"/>
<use xlink:href="#font_2_29" transform="matrix(11,0,0,-11,87.907718,196.65)"/>
<use xlink:href="#font_2_2b" transform="matrix(11,0,0,-11,97.907718,196.65)"/>
<use xlink:href="#font_2_2e" transform="matrix(11,0,0,-11,104.03291,196.65)"/>
<use xlink:href="#font_2_37" transform="matrix(11,0,0,-11,106.907718,196.65)"/>
<use xlink:href="#font_2_2a" transform="matrix(11,0,0,-11,113.75772,196.65)"/>
<use xlink:href="#font_2_2b" transform="matrix(11,0,0,-11,122.75772,196.65)"/>
<use xlink:href="#font_2_2e" transform="matrix(11,0,0,-11,128.8829,196.65)"/>
<use xlink:href="#font_2_2c" transform="matrix(11,0,0,-11,131.50528,196.75742)"/>
<symbol id="font_2_2d">
<path d="M .45263673 0 L .45263673 .32861329 L .09423828 .32861329 L .09423828 0 L 0 0 L 0 .7109375 L .09423828 .7109375 L .09423828 .40527345 L .45263673 .40527345 L .45263673 .7109375 L .5463867 .7109375 L .5463867 0 L .45263673 0 Z "/>
</symbol>
<use xlink:href="#font_2_2d" transform="matrix(11,0,0,-11,139.25772,196.65)"/>
<use xlink:href="#font_2_39" transform="matrix(11,0,0,-11,146.41855,196.65)"/>
<use xlink:href="#font_2_2e" transform="matrix(11,0,0,-11,153.73291,196.65)"/>
<use xlink:href="#font_2_33" transform="matrix(11,0,0,-11,156.65772,196.65)"/>
<use xlink:href="#font_2_2c" transform="matrix(11,0,0,-11,164.20528,196.75742)"/>
</g>
<clipPath id="cp17">
<path d="M 0 0 L 612 0 L 612 792 L 0 792 Z " fill-rule="evenodd"/>
</clipPath>
<g clip-path="url(#cp17)">
<path transform="matrix(.05,0,0,.05,72,72)" stroke-width="10" stroke-linecap="butt" stroke-miterlimit="4" stroke-linejoin="miter" fill="none" stroke="#000000" d="M -113 2798 L 2427 2798 "/>
<path transform="matrix(.05,0,0,.05,72,72)" stroke-width="10" stroke-linecap="butt" stroke-miterlimit="4" stroke-linejoin="miter" fill="none" stroke="#000000" d="M -108 1975 L -108 2803 "/>
<path transform="matrix(.05,0,0,.05,72,72)" stroke-width="10" stroke-linecap="butt" stroke-miterlimit="4" stroke-linejoin="miter" fill="none" stroke="#000000" d="M 2422 1975 L 2422 2803 "/>
</g>
<clipPath id="cp18">
<path d="M 193.1 170.75 L 306 170.75 L 306 212.15 L 193.1 212.15 Z " fill-rule="evenodd"/>
</clipPath>
<g clip-path="url(#cp18)">
<use xlink:href="#font_2_16" transform="matrix(11,0,0,-11,199.41846,181.2)"/>
<use xlink:href="#font_2_17" transform="matrix(11,0,0,-11,205.15488,181.2)"/>
<use xlink:href="#font_2_13" transform="matrix(11,0,0,-11,211.57344,181.26445)"/>
<use xlink:href="#font_2_16" transform="matrix(11,0,0,-11,214.61846,181.2)"/>
<use xlink:href="#font_2_15" transform="matrix(11,0,0,-11,220.46768,181.30742)"/>
<use xlink:href="#font_2_13" transform="matrix(11,0,0,-11,226.77344,181.26445)"/>
<use xlink:href="#font_2_17" transform="matrix(11,0,0,-11,229.35489,181.2)"/>
<use xlink:href="#font_2_15" transform="matrix(11,0,0,-11,235.61768,181.30742)"/>
<use xlink:href="#font_2_16" transform="matrix(11,0,0,-11,242.11846,181.2)"/>
<use xlink:href="#font_2_1d" transform="matrix(11,0,0,-11,247.95157,181.30742)"/>
</g>
<clipPath id="cp19">
<path d="M 0 0 L 612 0 L 612 792 L 0 792 Z " fill-rule="evenodd"/>
</clipPath>
<g clip-path="url(#cp19)">
<path transform="matrix(.05,0,0,.05,72,72)" stroke-width="10" stroke-linecap="butt" stroke-miterlimit="4" stroke-linejoin="miter" fill="none" stroke="#000000" d="M 2422 2798 L 4685 2798 "/>
<path transform="matrix(.05,0,0,.05,72,72)" stroke-width="10" stroke-linecap="butt" stroke-miterlimit="4" stroke-linejoin="miter" fill="none" stroke="#000000" d="M 4680 1975 L 4680 2803 "/>
</g>
<clipPath id="cp20">
<path d="M 306 170.75 L 425.7 170.75 L 425.7 212.15 L 306 212.15 Z " fill-rule="evenodd"/>
</clipPath>
<g clip-path="url(#cp20)">
<use xlink:href="#font_2_16" transform="matrix(11,0,0,-11,312.31846,181.2)"/>
<use xlink:href="#font_2_16" transform="matrix(11,0,0,-11,318.46846,181.2)"/>
<use xlink:href="#font_2_13" transform="matrix(11,0,0,-11,324.47343,181.26445)"/>
<use xlink:href="#font_2_16" transform="matrix(11,0,0,-11,327.51847,181.2)"/>
<use xlink:href="#font_2_15" transform="matrix(11,0,0,-11,333.36769,181.30742)"/>
<use xlink:href="#font_2_13" transform="matrix(11,0,0,-11,339.67344,181.26445)"/>
<use xlink:href="#font_2_17" transform="matrix(11,0,0,-11,342.25489,181.2)"/>
<use xlink:href="#font_2_15" transform="matrix(11,0,0,-11,348.51768,181.30742)"/>
<use xlink:href="#font_2_17" transform="matrix(11,0,0,-11,354.6049,181.2)"/>
<use xlink:href="#font_2_18" transform="matrix(11,0,0,-11,360.76026,181.30742)"/>
</g>
<clipPath id="cp21">
<path d="M 0 0 L 612 0 L 612 792 L 0 792 Z " fill-rule="evenodd"/>
</clipPath>
<g clip-path="url(#cp21)">
<path transform="matrix(.05,0,0,.05,72,72)" stroke-width="10" stroke-linecap="butt" stroke-miterlimit="4" stroke-linejoin="miter" fill="none" stroke="#000000" d="M 4680 2798 L 7079 2798 "/>
<path transform="matrix(.05,0,0,.05,72,72)" stroke-width="10" stroke-linecap="butt" stroke-miterlimit="4" stroke-linejoin="miter" fill="none" stroke="#000000" d="M 7074 1975 L 7074 2803 "/>
</g>
<clipPath id="cp22">
<path d="M 425.7 170.75 L 545.4 170.75 L 545.4 212.15 L 425.7 212.15 Z " fill-rule="evenodd"/>
</clipPath>
<g clip-path="url(#cp22)">
<use xlink:href="#font_2_15" transform="matrix(11,0,0,-11,431.71769,181.30742)"/>
<use xlink:href="#font_2_1a" transform="matrix(11,0,0,-11,438.07716,181.30742)"/>
<use xlink:href="#font_2_17" transform="matrix(11,0,0,-11,443.90489,181.2)"/>
<use xlink:href="#font_2_1c" transform="matrix(11,0,0,-11,450.01896,181.2)"/>
<use xlink:href="#font_2_1b" transform="matrix(11,0,0,-11,456.46437,181.30742)"/>
</g>
<clipPath id="cp23">
<path d="M 0 0 L 612 0 L 612 792 L 0 792 Z " fill-rule="evenodd"/>
</clipPath>
<g clip-path="url(#cp23)">
<path transform="matrix(.05,0,0,.05,72,72)" stroke-width="10" stroke-linecap="butt" stroke-miterlimit="4" stroke-linejoin="miter" fill="none" stroke="#000000" d="M 7074 2798 L 9473 2798 "/>
<path transform="matrix(.05,0,0,.05,72,72)" stroke-width="10" stroke-linecap="butt" stroke-miterlimit="4" stroke-linejoin="miter" fill="none" stroke="#000000" d="M 9468 1975 L 9468 2803 "/>
</g>
<clipPath id="cp24">
<path d="M 66.6 212.15001 L 193.1 212.15001 L 193.1 253.55002 L 66.6 253.55002 Z " fill-rule="evenodd"/>
</clipPath>
<g clip-path="url(#cp24)">
<use xlink:href="#font_2_38" transform="matrix(11,0,0,-11,72.43506,222.70743)"/>
<use xlink:href="#font_2_3a" transform="matrix(11,0,0,-11,79.25195,222.70743)"/>
<use xlink:href="#font_2_37" transform="matrix(11,0,0,-11,86.55772,222.6)"/>
<use xlink:href="#font_2_3b" transform="matrix(11,0,0,-11,92.60576,222.6)"/>
<use xlink:href="#font_2_2e" transform="matrix(11,0,0,-11,100.48291,222.6)"/>
<use xlink:href="#font_2_3b" transform="matrix(11,0,0,-11,102.60576,222.6)"/>
<use xlink:href="#font_2_26" transform="matrix(11,0,0,-11,109.65576,222.6)"/>
<use xlink:href="#font_2_31" transform="matrix(11,0,0,-11,117.55772,222.6)"/>
<use xlink:href="#font_2_28" transform="matrix(11,0,0,-11,125.99454,222.70743)"/>
<use xlink:href="#font_2_37" transform="matrix(11,0,0,-11,133.40772,222.6)"/>
<use xlink:href="#font_2_26" transform="matrix(11,0,0,-11,139.45577,222.6)"/>
<use xlink:href="#font_2_2b" transform="matrix(11,0,0,-11,147.35773,222.6)"/>
<use xlink:href="#font_2_39" transform="matrix(11,0,0,-11,152.76856,222.6)"/>
<use xlink:href="#font_2_26" transform="matrix(11,0,0,-11,162.00577,222.6)"/>
<use xlink:href="#font_2_33" transform="matrix(11,0,0,-11,169.90772,222.6)"/>
<use xlink:href="#font_2_29" transform="matrix(11,0,0,-11,177.75772,222.6)"/>
<use xlink:href="#font_2_37" transform="matrix(11,0,0,-11,72.907718,238.05)"/>
<use xlink:href="#font_2_2a" transform="matrix(11,0,0,-11,79.70772,238.05)"/>
<use xlink:href="#font_2_38" transform="matrix(11,0,0,-11,85.53506,238.15743)"/>
<use xlink:href="#font_2_28" transform="matrix(11,0,0,-11,92.194538,238.15743)"/>
<use xlink:href="#font_2_3a" transform="matrix(11,0,0,-11,99.45195,238.15743)"/>
<use xlink:href="#font_2_2a" transform="matrix(11,0,0,-11,106.75772,238.05)"/>
<symbol id="font_2_27">
<path d="M .48388673 .20507813 C .48388673 .13867188 .46240235 .087890628 .4194336 .052734376 C .37679038 .017578125 .31998698 0 .24902344 0 L 0 0 L 0 .7109375 L .23291016 .7109375 C .3058268 .7109375 .36263023 .6958008 .4033203 .66552737 C .44433595 .6355794 .46484376 .5875651 .46484376 .5214844 C .46484376 .48860679 .45540367 .4593099 .43652345 .43359376 C .41796876 .40820313 .39241538 .38850913 .35986329 .37451173 C .39990235 .363444 .4305013 .3424479 .45166017 .31152345 C .47314454 .28059898 .48388673 .24511719 .48388673 .20507813 M .09423828 .63378909 L .09423828 .40820313 L .23583985 .40820313 C .27620445 .40820313 .3087565 .41829429 .3334961 .43847657 C .3582357 .45865885 .37060548 .48665367 .37060548 .52246096 C .37060548 .59505209 .32666017 .63216146 .23876953 .63378909 L .09423828 .63378909 M .39013673 .20410156 C .39013673 .24381511 .37923179 .2750651 .35742188 .29785157 C .3359375 .32096354 .30126954 .33251954 .25341798 .33251954 L .09423828 .33251954 L .09423828 .076660159 L .24902344 .076660159 C .29361979 .076660159 .32828776 .08805338 .35302735 .110839847 C .37776695 .13395183 .39013673 .16503906 .39013673 .20410156 Z "/>
</symbol>
<use xlink:href="#font_2_27" transform="matrix(11,0,0,-11,115.80772,238.05)"/>
<use xlink:href="#font_2_34" transform="matrix(11,0,0,-11,122.33916,238.15743)"/>
<use xlink:href="#font_2_26" transform="matrix(11,0,0,-11,129.45577,238.05)"/>
<use xlink:href="#font_2_39" transform="matrix(11,0,0,-11,136.71857,238.05)"/>
</g>
<clipPath id="cp25">
<path d="M 0 0 L 612 0 L 612 792 L 0 792 Z " fill-rule="evenodd"/>
</clipPath>
<g clip-path="url(#cp25)">
<path transform="matrix(.05,0,0,.05,72,72)" stroke-width="10" stroke-linecap="butt" stroke-miterlimit="4" stroke-linejoin="miter" fill="none" stroke="#000000" d="M -113 3626 L 2427 3626 "/>
<path transform="matrix(.05,0,0,.05,72,72)" stroke-width="10" stroke-linecap="butt" stroke-miterlimit="4" stroke-linejoin="miter" fill="none" stroke="#000000" d="M -108 2803 L -108 3631 "/>
<path transform="matrix(.05,0,0,.05,72,72)" stroke-width="10" stroke-linecap="butt" stroke-miterlimit="4" stroke-linejoin="miter" fill="none" stroke="#000000" d="M 2422 2803 L 2422 3631 "/>
</g>
<clipPath id="cp26">
<path d="M 193.1 212.15001 L 306 212.15001 L 306 253.55002 L 193.1 253.55002 Z " fill-rule="evenodd"/>
</clipPath>
<g clip-path="url(#cp26)">
<use xlink:href="#font_2_17" transform="matrix(11,0,0,-11,199.00489,222.6)"/>
<use xlink:href="#font_2_15" transform="matrix(11,0,0,-11,205.26767,222.70743)"/>
<use xlink:href="#font_2_13" transform="matrix(11,0,0,-11,211.57344,222.66446)"/>
<use xlink:href="#font_2_15" transform="matrix(11,0,0,-11,214.31768,222.70743)"/>
<use xlink:href="#font_2_1a" transform="matrix(11,0,0,-11,220.67716,222.70743)"/>
<use xlink:href="#font_2_13" transform="matrix(11,0,0,-11,226.77344,222.66446)"/>
<use xlink:href="#font_2_17" transform="matrix(11,0,0,-11,229.35489,222.6)"/>
<use xlink:href="#font_2_15" transform="matrix(11,0,0,-11,235.61768,222.70743)"/>
<use xlink:href="#font_2_17" transform="matrix(11,0,0,-11,241.70488,222.6)"/>
<use xlink:href="#font_2_17" transform="matrix(11,0,0,-11,247.85489,222.6)"/>
</g>
<clipPath id="cp27">
<path d="M 0 0 L 612 0 L 612 792 L 0 792 Z " fill-rule="evenodd"/>
</clipPath>
<g clip-path="url(#cp27)">
<path transform="matrix(.05,0,0,.05,72,72)" stroke-width="10" stroke-linecap="butt" stroke-miterlimit="4" stroke-linejoin="miter" fill="none" stroke="#000000" d="M 2422 3626 L 4685 3626 "/>
<path transform="matrix(.05,0,0,.05,72,72)" stroke-width="10" stroke-linecap="butt" stroke-miterlimit="4" stroke-linejoin="miter" fill="none" stroke="#000000" d="M 4680 2803 L 4680 3631 "/>
</g>
<clipPath id="cp28">
<path d="M 306 212.15001 L 425.7 212.15001 L 425.7 253.55002 L 306 253.55002 Z " fill-rule="evenodd"/>
</clipPath>
<g clip-path="url(#cp28)">
<use xlink:href="#font_2_16" transform="matrix(11,0,0,-11,312.31846,222.6)"/>
<use xlink:href="#font_2_1e" transform="matrix(11,0,0,-11,318.0871,222.61075)"/>
<use xlink:href="#font_2_13" transform="matrix(11,0,0,-11,324.47343,222.66446)"/>
<use xlink:href="#font_2_15" transform="matrix(11,0,0,-11,327.21769,222.70743)"/>
<use xlink:href="#font_2_1a" transform="matrix(11,0,0,-11,333.57716,222.70743)"/>
<use xlink:href="#font_2_13" transform="matrix(11,0,0,-11,339.67344,222.66446)"/>
<use xlink:href="#font_2_17" transform="matrix(11,0,0,-11,342.25489,222.6)"/>
<use xlink:href="#font_2_15" transform="matrix(11,0,0,-11,348.51768,222.70743)"/>
<use xlink:href="#font_2_17" transform="matrix(11,0,0,-11,354.6049,222.6)"/>
<use xlink:href="#font_2_1c" transform="matrix(11,0,0,-11,360.66896,222.6)"/>
</g>
<clipPath id="cp29">
<path d="M 0 0 L 612 0 L 612 792 L 0 792 Z " fill-rule="evenodd"/>
</clipPath>
<g clip-path="url(#cp29)">
<path transform="matrix(.05,0,0,.05,72,72)" stroke-width="10" stroke-linecap="butt" stroke-miterlimit="4" stroke-linejoin="miter" fill="none" stroke="#000000" d="M 4680 3626 L 7079 3626 "/>
<path transform="matrix(.05,0,0,.05,72,72)" stroke-width="10" stroke-linecap="butt" stroke-miterlimit="4" stroke-linejoin="miter" fill="none" stroke="#000000" d="M 7074 2803 L 7074 3631 "/>
</g>
<clipPath id="cp30">
<path d="M 425.7 212.15001 L 545.4 212.15001 L 545.4 253.55002 L 425.7 253.55002 Z " fill-rule="evenodd"/>
</clipPath>
<g clip-path="url(#cp30)">
<use xlink:href="#font_2_15" transform="matrix(11,0,0,-11,431.71769,222.70743)"/>
<use xlink:href="#font_2_18" transform="matrix(11,0,0,-11,437.76026,222.70743)"/>
<use xlink:href="#font_2_1c" transform="matrix(11,0,0,-11,443.81895,222.6)"/>
<use xlink:href="#font_2_19" transform="matrix(11,0,0,-11,449.88468,222.6)"/>
<use xlink:href="#font_2_1b" transform="matrix(11,0,0,-11,456.46437,222.70743)"/>
</g>
<clipPath id="cp31">
<path d="M 0 0 L 612 0 L 612 792 L 0 792 Z " fill-rule="evenodd"/>
</clipPath>
<g clip-path="url(#cp31)">
<path transform="matrix(.05,0,0,.05,72,72)" stroke-width="10" stroke-linecap="butt" stroke-miterlimit="4" stroke-linejoin="miter" fill="none" stroke="#000000" d="M 7074 3626 L 9473 3626 "/>
<path transform="matrix(.05,0,0,.05,72,72)" stroke-width="10" stroke-linecap="butt" stroke-miterlimit="4" stroke-linejoin="miter" fill="none" stroke="#000000" d="M 9468 2803 L 9468 3631 "/>
</g>
<clipPath id="cp32">
<path d="M 66.6 253.55 L 193.1 253.55 L 193.1 310.4 L 66.6 310.4 Z " fill-rule="evenodd"/>
</clipPath>
<g clip-path="url(#cp32)">
<use xlink:href="#font_2_35" transform="matrix(11,0,0,-11,72.907718,264)"/>
<use xlink:href="#font_2_2a" transform="matrix(11,0,0,-11,79.85771,264)"/>
<use xlink:href="#font_2_37" transform="matrix(11,0,0,-11,86.10771,264)"/>
<use xlink:href="#font_2_38" transform="matrix(11,0,0,-11,92.43506,264.10743)"/>
<use xlink:href="#font_2_34" transform="matrix(11,0,0,-11,99.13916,264.10743)"/>
<use xlink:href="#font_2_33" transform="matrix(11,0,0,-11,107.00772,264)"/>
<use xlink:href="#font_2_26" transform="matrix(11,0,0,-11,114.05576,264)"/>
<use xlink:href="#font_2_31" transform="matrix(11,0,0,-11,121.95772,264)"/>
<use xlink:href="#font_2_38" transform="matrix(11,0,0,-11,130.18506,264.10743)"/>
<use xlink:href="#font_2_26" transform="matrix(11,0,0,-11,136.40576,264)"/>
<use xlink:href="#font_2_2b" transform="matrix(11,0,0,-11,144.30771,264)"/>
<use xlink:href="#font_2_2a" transform="matrix(11,0,0,-11,150.35773,264)"/>
<use xlink:href="#font_2_39" transform="matrix(11,0,0,-11,155.96857,264)"/>
<use xlink:href="#font_2_3e" transform="matrix(11,0,0,-11,162.38057,264)"/>
<use xlink:href="#font_2_26" transform="matrix(11,0,0,-11,72.15576,279.45)"/>
<use xlink:href="#font_2_33" transform="matrix(11,0,0,-11,80.05772,279.45)"/>
<use xlink:href="#font_2_29" transform="matrix(11,0,0,-11,87.85771,279.45)"/>
<use xlink:href="#font_2_38" transform="matrix(11,0,0,-11,97.43506,279.55744)"/>
<use xlink:href="#font_2_34" transform="matrix(11,0,0,-11,104.08916,279.55744)"/>
<use xlink:href="#font_2_28" transform="matrix(11,0,0,-11,111.694538,279.55744)"/>
<use xlink:href="#font_2_2e" transform="matrix(11,0,0,-11,119.18291,279.45)"/>
<use xlink:href="#font_2_26" transform="matrix(11,0,0,-11,121.35576,279.45)"/>
<use xlink:href="#font_2_31" transform="matrix(11,0,0,-11,129.25772,279.45)"/>
<use xlink:href="#font_2_37" transform="matrix(11,0,0,-11,72.907718,294.90003)"/>
<use xlink:href="#font_2_2a" transform="matrix(11,0,0,-11,79.75771,294.90003)"/>
<use xlink:href="#font_2_38" transform="matrix(11,0,0,-11,85.53506,295.00746)"/>
<use xlink:href="#font_2_35" transform="matrix(11,0,0,-11,92.50771,294.90003)"/>
<use xlink:href="#font_2_34" transform="matrix(11,0,0,-11,99.18916,295.00746)"/>
<use xlink:href="#font_2_33" transform="matrix(11,0,0,-11,107.00772,294.90003)"/>
<use xlink:href="#font_2_38" transform="matrix(11,0,0,-11,114.385059,295.00746)"/>
<use xlink:href="#font_2_2e" transform="matrix(11,0,0,-11,121.38291,294.90003)"/>
<use xlink:href="#font_2_27" transform="matrix(11,0,0,-11,124.30772,294.90003)"/>
<use xlink:href="#font_2_2e" transform="matrix(11,0,0,-11,131.1829,294.90003)"/>
<use xlink:href="#font_2_31" transform="matrix(11,0,0,-11,134.10771,294.90003)"/>
<use xlink:href="#font_2_2e" transform="matrix(11,0,0,-11,140.08292,294.90003)"/>
<use xlink:href="#font_2_39" transform="matrix(11,0,0,-11,142.36856,294.90003)"/>
<use xlink:href="#font_2_3e" transform="matrix(11,0,0,-11,148.78058,294.90003)"/>
</g>
<clipPath id="cp33">
<path d="M 0 0 L 612 0 L 612 792 L 0 792 Z " fill-rule="evenodd"/>
</clipPath>
<g clip-path="url(#cp33)">
<path transform="matrix(.05,0,0,.05,72,72)" stroke-width="10" stroke-linecap="butt" stroke-miterlimit="4" stroke-linejoin="miter" fill="none" stroke="#000000" d="M -113 4763 L 2427 4763 "/>
<path transform="matrix(.05,0,0,.05,72,72)" stroke-width="10" stroke-linecap="butt" stroke-miterlimit="4" stroke-linejoin="miter" fill="none" stroke="#000000" d="M -108 3631 L -108 4768 "/>
<path transform="matrix(.05,0,0,.05,72,72)" stroke-width="10" stroke-linecap="butt" stroke-miterlimit="4" stroke-linejoin="miter" fill="none" stroke="#000000" d="M 2422 3631 L 2422 4768 "/>
</g>
<clipPath id="cp34">
<path d="M 193.1 253.55 L 306 253.55 L 306 310.4 L 193.1 310.4 Z " fill-rule="evenodd"/>
</clipPath>
<g clip-path="url(#cp34)">
<use xlink:href="#font_2_15" transform="matrix(11,0,0,-11,199.11768,264.10743)"/>
<use xlink:href="#font_2_1a" transform="matrix(11,0,0,-11,205.47714,264.10743)"/>
<use xlink:href="#font_2_13" transform="matrix(11,0,0,-11,211.57344,264.06446)"/>
<use xlink:href="#font_2_16" transform="matrix(11,0,0,-11,214.61846,264)"/>
<use xlink:href="#font_2_15" transform="matrix(11,0,0,-11,220.46768,264.10743)"/>
<use xlink:href="#font_2_13" transform="matrix(11,0,0,-11,226.77344,264.06446)"/>
<use xlink:href="#font_2_17" transform="matrix(11,0,0,-11,229.35489,264)"/>
<use xlink:href="#font_2_15" transform="matrix(11,0,0,-11,235.61768,264.10743)"/>
<use xlink:href="#font_2_16" transform="matrix(11,0,0,-11,242.11846,264)"/>
<use xlink:href="#font_2_1d" transform="matrix(11,0,0,-11,247.95157,264.10743)"/>
</g>
<clipPath id="cp35">
<path d="M 0 0 L 612 0 L 612 792 L 0 792 Z " fill-rule="evenodd"/>
</clipPath>
<g clip-path="url(#cp35)">
<path transform="matrix(.05,0,0,.05,72,72)" stroke-width="10" stroke-linecap="butt" stroke-miterlimit="4" stroke-linejoin="miter" fill="none" stroke="#000000" d="M 2422 4763 L 4685 4763 "/>
<path transform="matrix(.05,0,0,.05,72,72)" stroke-width="10" stroke-linecap="butt" stroke-miterlimit="4" stroke-linejoin="miter" fill="none" stroke="#000000" d="M 4680 3631 L 4680 4768 "/>
</g>
<clipPath id="cp36">
<path d="M 306 253.55 L 425.7 253.55 L 425.7 310.4 L 306 310.4 Z " fill-rule="evenodd"/>
</clipPath>
<g clip-path="url(#cp36)">
<use xlink:href="#font_2_15" transform="matrix(11,0,0,-11,312.01768,264.10743)"/>
<use xlink:href="#font_2_19" transform="matrix(11,0,0,-11,317.83467,264)"/>
<use xlink:href="#font_2_13" transform="matrix(11,0,0,-11,324.47343,264.06446)"/>
<use xlink:href="#font_2_16" transform="matrix(11,0,0,-11,327.51847,264)"/>
<use xlink:href="#font_2_15" transform="matrix(11,0,0,-11,333.36769,264.10743)"/>
<use xlink:href="#font_2_13" transform="matrix(11,0,0,-11,339.67344,264.06446)"/>
<use xlink:href="#font_2_17" transform="matrix(11,0,0,-11,342.25489,264)"/>
<use xlink:href="#font_2_15" transform="matrix(11,0,0,-11,348.51768,264.10743)"/>
<use xlink:href="#font_2_17" transform="matrix(11,0,0,-11,354.6049,264)"/>
<use xlink:href="#font_2_18" transform="matrix(11,0,0,-11,360.76026,264.10743)"/>
</g>
<clipPath id="cp37">
<path d="M 0 0 L 612 0 L 612 792 L 0 792 Z " fill-rule="evenodd"/>
</clipPath>
<g clip-path="url(#cp37)">
<path transform="matrix(.05,0,0,.05,72,72)" stroke-width="10" stroke-linecap="butt" stroke-miterlimit="4" stroke-linejoin="miter" fill="none" stroke="#000000" d="M 4680 4763 L 7079 4763 "/>
<path transform="matrix(.05,0,0,.05,72,72)" stroke-width="10" stroke-linecap="butt" stroke-miterlimit="4" stroke-linejoin="miter" fill="none" stroke="#000000" d="M 7074 3631 L 7074 4768 "/>
</g>
<clipPath id="cp38">
<path d="M 425.7 253.55 L 545.4 253.55 L 545.4 310.4 L 425.7 310.4 Z " fill-rule="evenodd"/>
</clipPath>
<g clip-path="url(#cp38)">
<use xlink:href="#font_2_15" transform="matrix(11,0,0,-11,431.71769,264.10743)"/>
<use xlink:href="#font_2_1a" transform="matrix(11,0,0,-11,438.07716,264.10743)"/>
<use xlink:href="#font_2_1a" transform="matrix(11,0,0,-11,444.22715,264.10743)"/>
<use xlink:href="#font_2_1c" transform="matrix(11,0,0,-11,450.01896,264)"/>
<use xlink:href="#font_2_1a" transform="matrix(11,0,0,-11,456.57716,264.10743)"/>
</g>
<clipPath id="cp39">
<path d="M 0 0 L 612 0 L 612 792 L 0 792 Z " fill-rule="evenodd"/>
</clipPath>
<g clip-path="url(#cp39)">
<path transform="matrix(.05,0,0,.05,72,72)" stroke-width="10" stroke-linecap="butt" stroke-miterlimit="4" stroke-linejoin="miter" fill="none" stroke="#000000" d="M 7074 4763 L 9473 4763 "/>
<path transform="matrix(.05,0,0,.05,72,72)" stroke-width="10" stroke-linecap="butt" stroke-miterlimit="4" stroke-linejoin="miter" fill="none" stroke="#000000" d="M 9468 3631 L 9468 4768 "/>
<use xlink:href="#font_2_19" transform="matrix(11,0,0,-11,72.28467,371.75007)"/>
<use xlink:href="#font_2_13" transform="matrix(11,0,0,-11,78.92344,371.8145)"/>
<path transform="matrix(.05,0,0,.05,72,361.30006)" d="M 290.85939 209 L 256.91407 145.6211 L 225.33203 145.6211 L 225.33203 209 L 198.1543 209 L 198.1543 46.148439 L 253.1543 46.148439 C 271.48765 46.148439 285.73893 50.445314 295.9082 59.039064 C 306.07749 67.63281 311.1621 80.05794 311.1621 96.31445 C 311.1621 106.734378 308.33335 115.865238 302.67579 123.70703 C 297.01823 131.51302 290.3939 136.86621 282.80274 139.7666 L 318.14454 203.68262 L 318.14454 209 L 290.85939 209 Z M 225.33203 69.56641 L 225.33203 122.31055 L 253.79883 122.31055 C 264.0039 122.31055 271.59507 119.78613 276.57228 114.737308 C 281.5853 109.65267 284.0918 103.51172 284.0918 96.31445 C 284.0918 88.186199 281.69273 81.70508 276.89454 76.87109 C 272.13218 72.001308 264.21876 69.56641 253.1543 69.56641 L 225.33203 69.56641 Z "/>
<use xlink:href="#font_2_37" transform="matrix(11,0,0,-11,81.907718,371.75007)" fill-opacity="0"/>
<path transform="matrix(.05,0,0,.05,72,361.30006)" d="M 337.1543 209 L 337.1543 46.148439 L 441.89064 46.148439 L 441.89064 69.56641 L 364.33204 69.56641 L 364.33204 113.39453 L 432.0078 113.39453 L 432.0078 136.70508 L 364.33204 136.70508 L 364.33204 185.68946 L 442.96485 185.68946 L 442.96485 209 L 337.1543 209 Z "/>
<use xlink:href="#font_2_2a" transform="matrix(11,0,0,-11,88.85771,371.75007)" fill-opacity="0"/>
<path transform="matrix(.05,0,0,.05,72,361.30006)" d="M 465.1543 209 L 465.1543 46.148439 L 568.49417 46.148439 L 568.49417 69.56641 L 492.33204 69.56641 L 492.33204 116.509769 L 557.8594 116.509769 L 557.8594 139.92774 L 492.33204 139.92774 L 492.33204 209 L 465.1543 209 Z "/>
<use xlink:href="#font_2_2b" transform="matrix(11,0,0,-11,95.25771,371.75007)" fill-opacity="0"/>
<path transform="matrix(.05,0,0,.05,72,361.30006)" d="M 588.1543 209 L 588.1543 46.148439 L 692.8906 46.148439 L 692.8906 69.56641 L 615.33206 69.56641 L 615.33206 113.39453 L 683.0078 113.39453 L 683.0078 136.70508 L 615.33206 136.70508 L 615.33206 185.68946 L 693.96487 185.68946 L 693.96487 209 L 588.1543 209 Z "/>
<use xlink:href="#font_2_2a" transform="matrix(11,0,0,-11,101.407718,371.75007)" fill-opacity="0"/>
<path transform="matrix(.05,0,0,.05,72,361.30006)" d="M 807.8594 209 L 773.91409 145.6211 L 742.33206 145.6211 L 742.33206 209 L 715.1543 209 L 715.1543 46.148439 L 770.1543 46.148439 C 788.4876 46.148439 802.73898 50.445314 812.9082 59.039064 C 823.07748 67.63281 828.1621 80.05794 828.1621 96.31445 C 828.1621 106.734378 825.3333 115.865238 819.6758 123.70703 C 814.01828 131.51302 807.39389 136.86621 799.80276 139.7666 L 835.14456 203.68262 L 835.14456 209 L 807.8594 209 Z M 742.33206 69.56641 L 742.33206 122.31055 L 770.7988 122.31055 C 781.0039 122.31055 788.59506 119.78613 793.57229 114.737308 C 798.58529 109.65267 801.0918 103.51172 801.0918 96.31445 C 801.0918 88.186199 798.6927 81.70508 793.89456 76.87109 C 789.13217 72.001308 781.21878 69.56641 770.1543 69.56641 L 742.33206 69.56641 Z "/>
<use xlink:href="#font_2_37" transform="matrix(11,0,0,-11,107.75772,371.75007)" fill-opacity="0"/>
<path transform="matrix(.05,0,0,.05,72,361.30006)" d="M 854.1543 209 L 854.1543 46.148439 L 958.8906 46.148439 L 958.8906 69.56641 L 881.33206 69.56641 L 881.33206 113.39453 L 949.0078 113.39453 L 949.0078 136.70508 L 881.33206 136.70508 L 881.33206 185.68946 L 959.96487 185.68946 L 959.96487 209 L 854.1543 209 Z "/>
<use xlink:href="#font_2_2a" transform="matrix(11,0,0,-11,114.70772,371.75007)" fill-opacity="0"/>
<path transform="matrix(.05,0,0,.05,72,361.30006)" d="M 982.1543 209 L 982.1543 46.148439 L 1086.8906 46.148439 L 1086.8906 69.56641 L 1009.33206 69.56641 L 1009.33206 113.39453 L 1077.0078 113.39453 L 1077.0078 136.70508 L 1009.33206 136.70508 L 1009.33206 185.68946 L 1087.9649 185.68946 L 1087.9649 209 L 982.1543 209 Z "/>
<use xlink:href="#font_2_2a" transform="matrix(11,0,0,-11,121.10771,371.75007)" fill-opacity="0"/>
<path transform="matrix(.05,0,0,.05,72,361.30006)" d="M 1192.5137 166.2461 C 1192.5137 160.05144 1190.3652 155.05632 1186.0684 151.26074 C 1181.7715 147.42937 1171.9066 143.23992 1156.4736 138.69239 C 1141.0407 134.14485 1128.544 128.12923 1118.9834 120.64551 C 1109.4229 113.12598 1104.6426 102.83138 1104.6426 89.76172 C 1104.6426 76.58463 1109.8346 65.663417 1120.2188 56.998048 C 1130.6029 48.33268 1144.2096 44 1161.0391 44 C 1179.5514 44 1193.8922 49.15625 1204.0615 59.46875 C 1214.2666 69.745449 1219.3692 82.492839 1219.3692 97.71094 L 1192.2988 97.71094 C 1192.2988 87.7207 1189.7744 80.183269 1184.7256 75.09863 C 1179.7125 69.97819 1171.817 67.41797 1161.0391 67.41797 C 1150.834 67.41797 1143.4039 69.5306 1138.749 73.75586 C 1134.1299 77.98112 1131.8203 83.24479 1131.8203 89.546878 C 1131.8203 94.989589 1134.3268 99.66244 1139.3399 103.56543 C 1144.3887 107.43262 1153.0541 111.10287 1165.3359 114.57617 C 1183.9557 119.80404 1197.6879 126.410488 1206.5322 134.39551 C 1215.3766 142.34473 1219.7988 152.88997 1219.7988 166.03125 C 1219.7988 179.85286 1214.4635 190.8278 1203.793 198.95606 C 1193.1224 207.0843 1179.1934 211.14844 1162.0059 211.14844 C 1152.0156 211.14844 1142.2582 209.26856 1132.7334 205.50879 C 1123.2445 201.74903 1115.3668 196.09148 1109.1006 188.53614 C 1102.8344 180.98079 1099.7012 170.54297 1099.7012 157.22266 L 1126.7715 157.22266 C 1126.7715 168.86003 1130.2807 176.88086 1137.2988 181.28516 C 1144.3529 185.65364 1152.5885 187.83789 1162.0059 187.83789 C 1172.1035 187.83789 1179.7125 185.86849 1184.833 181.92969 C 1189.9535 177.99089 1192.5137 172.76302 1192.5137 166.2461 Z "/>
<use xlink:href="#font_2_38" transform="matrix(11,0,0,-11,126.98506,371.85749)" fill-opacity="0"/>
<path transform="matrix(.05,0,0,.05,72,361.30006)" stroke-width="14" stroke-linecap="butt" stroke-miterlimit="4" stroke-linejoin="miter" fill="none" stroke="#000000" d="M 180 241 L 1223 241 "/>
<use xlink:href="#font_2_2c" transform="matrix(11,0,0,-11,72.65527,397.30747)"/>
<use xlink:href="#font_2_26" transform="matrix(11,0,0,-11,79.65576,397.20005)"/>
<use xlink:href="#font_2_27" transform="matrix(11,0,0,-11,87.55772,397.20005)"/>
<use xlink:href="#font_2_37" transform="matrix(11,0,0,-11,94.35771,397.20005)"/>
<use xlink:href="#font_2_2e" transform="matrix(11,0,0,-11,101.23291,397.20005)"/>
<use xlink:href="#font_2_2a" transform="matrix(11,0,0,-11,104.157718,397.20005)"/>
<use xlink:href="#font_2_31" transform="matrix(11,0,0,-11,110.407718,397.20005)"/>
<use xlink:href="#font_2_32" transform="matrix(11,0,0,-11,119.10771,397.20005)"/>
<use xlink:href="#font_2_34" transform="matrix(11,0,0,-11,128.38916,397.30747)"/>
<use xlink:href="#font_2_2c" transform="matrix(11,0,0,-11,136.00528,397.30747)"/>
<use xlink:href="#font_2_2a" transform="matrix(11,0,0,-11,143.75772,397.20005)"/>
<use xlink:href="#font_2_33" transform="matrix(11,0,0,-11,150.00772,397.20005)"/>
<use xlink:href="#font_2_2e" transform="matrix(11,0,0,-11,157.8829,397.20005)"/>
<symbol id="font_2_30">
<path d="M .4326172 0 L .18115235 .3310547 L .09423828 .24072266 L .09423828 0 L 0 0 L 0 .7109375 L .09423828 .7109375 L .09423828 .36035157 L .41015626 .7109375 L .5234375 .7109375 L .24414063 .39697267 L .5449219 0 L .4326172 0 Z "/>
</symbol>
<use xlink:href="#font_2_30" transform="matrix(11,0,0,-11,72.907718,422.65007)"/>
<use xlink:href="#font_2_2a" transform="matrix(11,0,0,-11,79.85771,422.65007)"/>
<use xlink:href="#font_2_33" transform="matrix(11,0,0,-11,86.10771,422.65007)"/>
<use xlink:href="#font_2_3e" transform="matrix(11,0,0,-11,93.08057,422.65007)"/>
<use xlink:href="#font_2_26" transform="matrix(11,0,0,-11,99.75576,422.65007)"/>
<use xlink:href="#font_2_37" transform="matrix(11,0,0,-11,110.407718,422.65007)"/>
<use xlink:href="#font_2_26" transform="matrix(11,0,0,-11,116.50577,422.65007)"/>
<use xlink:href="#font_2_2e" transform="matrix(11,0,0,-11,124.48291,422.65007)"/>
<use xlink:href="#font_2_31" transform="matrix(11,0,0,-11,127.35771,422.65007)"/>
<use xlink:href="#font_2_3c" transform="matrix(11,0,0,-11,132.72763,422.65007)"/>
<use xlink:href="#font_2_26" transform="matrix(11,0,0,-11,142.35578,422.65007)"/>
<use xlink:href="#font_2_3e" transform="matrix(11,0,0,-11,149.43058,422.65007)"/>
<use xlink:href="#font_2_38" transform="matrix(11,0,0,-11,156.38507,422.75749)"/>
<use xlink:href="#font_2_39" transform="matrix(11,0,0,-11,72.268558,448.10005)"/>
<use xlink:href="#font_2_2a" transform="matrix(11,0,0,-11,79.50771,448.10005)"/>
<use xlink:href="#font_2_28" transform="matrix(11,0,0,-11,85.49453,448.20747)"/>
<use xlink:href="#font_2_2d" transform="matrix(11,0,0,-11,92.907718,448.10005)"/>
<use xlink:href="#font_2_33" transform="matrix(11,0,0,-11,100.75771,448.10005)"/>
<use xlink:href="#font_2_2e" transform="matrix(11,0,0,-11,108.63291,448.10005)"/>
<use xlink:href="#font_2_28" transform="matrix(11,0,0,-11,111.24454,448.20747)"/>
<use xlink:href="#font_2_2e" transform="matrix(11,0,0,-11,118.73291,448.10005)"/>
<use xlink:href="#font_2_26" transform="matrix(11,0,0,-11,120.90576,448.10005)"/>
<use xlink:href="#font_2_33" transform="matrix(11,0,0,-11,128.80771,448.10005)"/>
<symbol id="font_2_14">
<path d="M .37402345 .77197268 L .07763672 0 L 0 0 L .296875 .77197268 L .37402345 .77197268 Z "/>
</symbol>
<use xlink:href="#font_2_14" transform="matrix(11,0,0,-11,135.80205,448.77143)"/>
<use xlink:href="#font_2_2e" transform="matrix(11,0,0,-11,141.18292,448.10005)"/>
<use xlink:href="#font_2_33" transform="matrix(11,0,0,-11,144.05771,448.10005)"/>
<use xlink:href="#font_2_38" transform="matrix(11,0,0,-11,151.43506,448.20747)"/>
<use xlink:href="#font_2_39" transform="matrix(11,0,0,-11,157.71857,448.10005)"/>
<use xlink:href="#font_2_37" transform="matrix(11,0,0,-11,164.95772,448.10005)"/>
<use xlink:href="#font_2_3a" transform="matrix(11,0,0,-11,171.65195,448.20747)"/>
<use xlink:href="#font_2_28" transform="matrix(11,0,0,-11,178.69454,448.20747)"/>
<use xlink:href="#font_2_39" transform="matrix(11,0,0,-11,185.46857,448.10005)"/>
<use xlink:href="#font_2_34" transform="matrix(11,0,0,-11,192.43917,448.20747)"/>
<use xlink:href="#font_2_37" transform="matrix(11,0,0,-11,200.30771,448.10005)"/>
<symbol id="font_2_52">
<path d="M .21240235 .46191407 C .15315755 .46191407 .11263021 .43701173 .09082031 .38720704 L .09082031 0 L 0 0 L 0 .5283203 L .0859375 .5283203 L .088378909 .47070313 C .12646485 .515625 .17854817 .53808596 .2446289 .53808596 C .27848307 .53808596 .30859376 .53125 .33496095 .5175781 C .36165367 .50423178 .3819987 .4827474 .3959961 .453125 C .41357423 .47851563 .4363607 .49902345 .46435548 .51464846 C .49267579 .53027346 .5258789 .53808596 .56396487 .53808596 C .62060549 .53808596 .6642253 .5229492 .6948242 .49267579 C .7257487 .46240235 .74121096 .41389976 .74121096 .34716798 L .74121096 0 L .6503906 0 L .6503906 .34814454 C .6503906 .39241538 .6401367 .42236329 .6196289 .43798829 C .5994466 .4539388 .57210287 .46191407 .53759768 .46191407 C .50113937 .46191407 .4724935 .45100913 .45166017 .42919923 C .4308268 .40771485 .41878257 .3815104 .41552735 .35058595 L .41552735 0 L .3251953 0 L .3251953 .34765626 C .3251953 .3889974 .3149414 .41829429 .2944336 .43554688 C .27392579 .453125 .24658203 .46191407 .21240235 .46191407 Z "/>
</symbol>
<use xlink:href="#font_2_52" transform="matrix(11,0,0,-11,72.74658,473.55006)"/>
<symbol id="font_2_54">
<path d="M 0 .27929688 C 0 .35579429 .021484375 .41959635 .064453128 .47070313 C .107421878 .52213546 .16585286 .54785159 .2397461 .54785159 C .3136393 .54785159 .3720703 .5226237 .41503907 .47216798 C .4580078 .42203776 .47998048 .359375 .48095704 .2841797 L .48095704 .2680664 C .48095704 .19156902 .4593099 .12776692 .41601563 .076660159 C .37304688 .025553385 .31461589 0 .24072266 0 C .1665039 0 .1077474 .025553385 .064453128 .076660159 C .021484375 .12776692 0 .19156902 0 .2680664 L 0 .27929688 M .09033203 .2680664 C .09033203 .21565755 .10270182 .17024739 .1274414 .13183594 C .15250652 .09342448 .19026692 .07421875 .24072266 .07421875 C .2898763 .07421875 .3269857 .09309896 .35205079 .13085938 C .37711589 .16894531 .3898112 .2141927 .39013673 .26660157 L .39013673 .27929688 C .39013673 .3310547 .37760417 .3763021 .35253907 .41503907 C .32747398 .45410157 .2898763 .4736328 .2397461 .4736328 C .1899414 .4736328 .15250652 .45410157 .1274414 .41503907 C .10270182 .3763021 .09033203 .3310547 .09033203 .27929688 L .09033203 .2680664 Z "/>
</symbol>
<use xlink:href="#font_2_54" transform="matrix(11,0,0,-11,82.19414,473.65748)"/>
<symbol id="font_2_4c">
<path d="M .22216797 0 C .19482422 0 .16129558 .0066731774 .12158203 .020019532 C .08186849 .033365888 .050130208 .057291669 .026367188 .091796878 L .07373047 .14550781 C .11279297 .09798177 .15999349 .07421875 .21533203 .07421875 C .25797526 .07421875 .2919922 .08626302 .3173828 .11035156 C .34277345 .13411458 .35546876 .16910808 .35546876 .21533203 L .35546876 .26171876 C .31966148 .21972656 .27034507 .19873047 .20751953 .19873047 C .14404297 .19873047 .09358724 .2241211 .056152345 .27490235 C .018717448 .3256836 0 .38964845 0 .46679688 L 0 .47705079 C 0 .55777999 .018554688 .6228841 .055664064 .6723633 C .09309896 .72184249 .14404297 .74658206 .2084961 .74658206 C .27327476 .74658206 .32356773 .7237956 .359375 .67822268 L .36376954 .7368164 L .44580079 .7368164 L .44580079 .21972656 C .44580079 .14973958 .42496745 .095703128 .38330079 .057617189 C .34163413 .019205729 .2879232 0 .22216797 0 M .09033203 .46679688 C .09033203 .41438804 .10123698 .36930339 .123046878 .33154298 C .1451823 .29410807 .18066406 .27539063 .22949219 .27539063 C .28678385 .27539063 .32877604 .30143229 .35546876 .35351563 L .35546876 .5942383 C .34407554 .61604818 .32828776 .63411459 .30810548 .6484375 C .2879232 .66308596 .26204429 .67041018 .23046875 .67041018 C .18131511 .67041018 .14567058 .6512044 .123535159 .61279299 C .10139974 .57470706 .09033203 .52945968 .09033203 .47705079 L .09033203 .46679688 Z "/>
</symbol>
<use xlink:href="#font_2_4c" transform="matrix(11,0,0,-11,88.47099,475.8435)"/>
<symbol id="font_2_4a">
<path d="M .44140626 .10205078 C .42415367 .07600912 .3997396 .052408857 .36816407 .03125 C .33658854 .010416667 .29475913 0 .24267578 0 C .16910808 0 .110188808 .023925782 .06591797 .071777347 C .021972657 .119628909 0 .18082683 0 .2553711 L 0 .2758789 C 0 .3334961 .010904948 .38248698 .032714845 .42285157 C .05485026 .46354167 .083496097 .49446617 .118652347 .515625 C .1538086 .5371094 .19124349 .54785159 .23095703 .54785159 C .30647788 .54785159 .36149089 .523112 .3959961 .4736328 C .4308268 .42447917 .4482422 .36295573 .4482422 .2890625 L .4482422 .24853516 L .09082031 .24853516 C .0921224 .20003255 .10644531 .1586914 .13378906 .12451172 C .16145833 .090657558 .19938152 .07373047 .2475586 .07373047 C .27945964 .07373047 .30647788 .08024088 .32861329 .09326172 C .3507487 .106282558 .3701172 .123697917 .38671876 .14550781 L .44140626 .10205078 M .23095703 .4736328 C .19514974 .4736328 .1648763 .46061198 .14013672 .4345703 C .11539713 .40852867 .0999349 .37109376 .09375 .32226563 L .35791017 .32226563 L .35791017 .32910157 C .3556315 .3642578 .3453776 .3971354 .32714845 .42773438 C .30924479 .45833335 .277181 .4736328 .23095703 .4736328 Z "/>
</symbol>
<use xlink:href="#font_2_4a" transform="matrix(11,0,0,-11,94.59951,473.65748)"/>
<symbol id="font_2_53">
<path d="M .21923828 .46191407 C .19026692 .46191407 .16471355 .45410157 .14257813 .43847657 C .12044271 .42285157 .103027347 .4025065 .09033203 .3774414 L .09033203 0 L 0 0 L 0 .5283203 L .08544922 .5283203 L .088378909 .46240235 C .12841797 .5128581 .18098958 .53808596 .24609375 .53808596 C .29785157 .53808596 .3388672 .5236003 .36914063 .4946289 C .3997396 .46565757 .4152018 .4169922 .41552735 .3486328 L .41552735 0 L .32470704 0 L .32470704 .34716798 C .32470704 .38850913 .31559245 .41796876 .29736329 .43554688 C .27945964 .453125 .25341798 .46191407 .21923828 .46191407 Z "/>
</symbol>
<use xlink:href="#font_2_53" transform="matrix(11,0,0,-11,100.70732,473.55006)"/>
<symbol id="font_2_4e">
<path d="M 0 .66845706 C 0 .68310549 .0043945314 .6954753 .013183594 .7055664 C .022298178 .71565756 .03564453 .7207031 .053222658 .7207031 C .07047526 .7207031 .08365885 .71565756 .09277344 .7055664 C .10221354 .6954753 .106933597 .68310549 .106933597 .66845706 C .106933597 .65445968 .10221354 .64241537 .09277344 .6323242 C .08365885 .6225586 .07047526 .6176758 .053222658 .6176758 C .03564453 .6176758 .022298178 .6225586 .013183594 .6323242 C .0043945314 .64241537 0 .65445968 0 .66845706 M .09765625 .5283203 L .09765625 0 L .0068359377 0 L .0068359377 .5283203 L .09765625 .5283203 Z "/>
</symbol>
<use xlink:href="#font_2_4e" transform="matrix(11,0,0,-11,106.762699,473.55006)"/>
<use xlink:href="#font_2_4c" transform="matrix(11,0,0,-11,109.171,475.8435)"/>
<symbol id="font_2_46">
<path d="M .34179688 .009765625 C .3359375 .022460938 .33170573 .041015626 .32910157 .06542969 C .31217448 .047526044 .29101563 .0320638 .265625 .019042969 C .24023438 .0063476564 .21126302 0 .17871094 0 C .12467448 0 .08138021 .015136719 .048828126 .045410158 C .016276041 .075683597 0 .11279297 0 .15673828 C 0 .2133789 .021484375 .25634767 .064453128 .28564454 C .107421878 .31526695 .16520183 .33007813 .23779297 .33007813 L .32714845 .33007813 L .32714845 .3720703 C .32714845 .4033203 .31770835 .42822267 .29882813 .44677735 C .28027345 .46565757 .25260417 .47509767 .21582031 .47509767 C .18164063 .47509767 .15397136 .46663413 .1328125 .44970704 C .111979167 .43310548 .1015625 .41373698 .1015625 .39160157 L .011230469 .39160157 C .011230469 .42936198 .030273438 .46484376 .068359378 .49804688 C .10644531 .53125 .15738933 .54785159 .2211914 .54785159 C .27848307 .54785159 .32552085 .5332031 .3623047 .50390627 C .39908854 .47460938 .41748048 .43033854 .41748048 .37109376 L .41748048 .13378906 C .41748048 .08496094 .42366538 .046223958 .43603517 .017578125 L .43603517 .009765625 L .34179688 .009765625 M .19189453 .07910156 C .22444661 .07910156 .25260417 .087239589 .2763672 .103515628 C .30045573 .119791667 .3173828 .13785808 .32714845 .15771485 L .32714845 .26660157 L .24316406 .26660157 C .14160156 .26464845 .09082031 .23209636 .09082031 .16894531 C .09082031 .1438802 .09928385 .122558597 .11621094 .10498047 C .13313802 .08772787 .15836589 .07910156 .19189453 .07910156 Z "/>
</symbol>
<use xlink:href="#font_2_46" transform="matrix(11,0,0,-11,115.38545,473.65748)"/>
<symbol id="font_2_47">
<path d="M .4477539 .2680664 C .4477539 .19091797 .42985026 .12695313 .39404298 .076171878 C .3582357 .025390625 .3076172 0 .2421875 0 C .17545574 0 .12402344 .02360026 .087890628 .07080078 L .08300781 .009765625 L 0 .009765625 L 0 .7597656 L .09082031 .7597656 L .09082031 .48095704 C .12662761 .5255534 .17675781 .54785159 .24121094 .54785159 C .3076172 .54785159 .3585612 .523112 .39404298 .4736328 C .42985026 .42415367 .4477539 .35904948 .4477539 .2783203 L .4477539 .2680664 M .21875 .4716797 C .18587239 .4716797 .15917969 .46370445 .13867188 .4477539 C .11816406 .4321289 .10221354 .4127604 .09082031 .38964845 L .09082031 .15966797 C .10253906 .13623047 .1188151 .11653646 .13964844 .10058594 C .16048177 .084635417 .18717449 .076660159 .21972656 .076660159 C .2685547 .076660159 .3035482 .0953776 .32470704 .1328125 C .3461914 .17057292 .3569336 .21565755 .3569336 .2680664 L .3569336 .2783203 C .3569336 .33072917 .3466797 .37597657 .32617188 .4140625 C .3059896 .45247398 .27018229 .4716797 .21875 .4716797 Z "/>
</symbol>
<use xlink:href="#font_2_47" transform="matrix(11,0,0,-11,121.50195,473.65748)"/>
<symbol id="font_2_57">
<path d="M .2109375 .45117188 C .15201824 .45117188 .111816409 .42578126 .09033203 .375 L .09033203 0 L 0 0 L 0 .5283203 L .087890628 .5283203 L .08984375 .46777345 C .1188151 .51464846 .16064453 .53808596 .21533203 .53808596 C .23225911 .53808596 .24560547 .5358073 .2553711 .53125 L .2548828 .44726563 C .24153646 .44986979 .22688802 .45117188 .2109375 .45117188 Z "/>
</symbol>
<use xlink:href="#font_2_57" transform="matrix(11,0,0,-11,127.657329,473.55006)"/>
<use xlink:href="#font_2_4e" transform="matrix(11,0,0,-11,131.41269,473.55006)"/>
<use xlink:href="#font_2_4a" transform="matrix(11,0,0,-11,133.74951,473.65748)"/>
<symbol id="font_2_51">
<path d="M .09082031 .75 L .09082031 0 L 0 0 L 0 .75 L .09082031 .75 Z "/>
</symbol>
<use xlink:href="#font_2_51" transform="matrix(11,0,0,-11,139.9379,473.55006)"/>
<symbol id="font_2_25">
<path d="M .56689456 .04345703 C .5441081 .028808594 .515625 .017903647 .4814453 .0107421879 C .44759117 .0035807293 .41552735 0 .3852539 0 C .261556 0 .16585286 .040852865 .09814453 .122558597 C .030761719 .2039388 0 .31461589 .005859375 .45458985 C .009765625 .54378256 .029134116 .6233724 .063964847 .6933594 C .099121097 .7636719 .14713542 .81901046 .20800781 .859375 C .26920573 .89973959 .34065757 .9199219 .42236329 .9199219 C .5476888 .9199219 .6427409 .87906906 .70751956 .7973633 C .7726237 .71565756 .8024089 .60546877 .796875 .46679688 C .7952474 .4267578 .78759768 .38704429 .7739258 .34765626 C .7605794 .30826823 .7394206 .27555339 .7104492 .24951172 C .6818034 .22379558 .64404299 .2109375 .59716799 .2109375 C .53597006 .2109375 .49690757 .23860677 .47998048 .2939453 C .44482423 .23860677 .40120445 .2109375 .3491211 .2109375 C .30126954 .2109375 .26595054 .23063152 .24316406 .27001954 C .22037761 .30940757 .21191406 .36116538 .21777344 .42529298 C .22526042 .51090499 .24967449 .57877609 .29101563 .62890627 C .33268229 .679362 .3787435 .70458987 .42919923 .70458987 C .46435548 .70458987 .49202476 .69938156 .51220706 .68896487 C .53238937 .6788737 .55159506 .6668294 .5698242 .65283206 L .5449219 .38232423 C .5406901 .3347982 .5460612 .30403648 .56103518 .29003907 C .5760091 .27604167 .5914714 .26904298 .6074219 .26904298 C .6468099 .26904298 .6770833 .2882487 .6982422 .32666017 C .71972659 .36507163 .7316081 .41178385 .7338867 .46679688 C .7394206 .5882161 .7167969 .68343099 .6660156 .7524414 C .6155599 .82145187 .5336914 .85595706 .42041017 .85595706 C .3178711 .85595706 .23616536 .81884768 .17529297 .7446289 C .11442057 .67041018 .08154297 .57373049 .076660159 .45458985 C .07080078 .33284507 .095052089 .2368164 .14941406 .1665039 C .20410156 .096191409 .28336589 .061035158 .38720704 .061035158 C .41585288 .061035158 .44482423 .064453128 .4741211 .07128906 C .50374349 .078125 .5284831 .087402347 .54833987 .099121097 L .56689456 .04345703 M .29541017 .42529298 C .29117839 .37939454 .2955729 .34391276 .30859376 .31884767 C .3219401 .29378257 .3429362 .28125 .37158204 .28125 C .3881836 .28125 .40592448 .28873698 .4248047 .30371095 C .4436849 .3186849 .4596354 .34342448 .47265626 .3779297 L .47314454 .38232423 L .49560548 .6274414 C .4773763 .63688156 .45784507 .64160159 .43701173 .64160159 C .40152995 .64160159 .37060548 .6233724 .34423829 .58691409 C .31819663 .55045577 .30192057 .49658204 .29541017 .42529298 Z "/>
</symbol>
<use xlink:href="#font_2_25" transform="matrix(11,0,0,-11,142.3086,475.98316)"/>
<use xlink:href="#font_2_4c" transform="matrix(11,0,0,-11,152.17099,475.8435)"/>
<use xlink:href="#font_2_52" transform="matrix(11,0,0,-11,158.54659,473.55006)"/>
<use xlink:href="#font_2_46" transform="matrix(11,0,0,-11,168.08545,473.65748)"/>
<use xlink:href="#font_2_4e" transform="matrix(11,0,0,-11,174.16269,473.55006)"/>
<use xlink:href="#font_2_51" transform="matrix(11,0,0,-11,176.8879,473.55006)"/>
<use xlink:href="#font_2_13" transform="matrix(11,0,0,-11,179.47345,473.6145)"/>
<symbol id="font_2_48">
<path d="M .23486328 .07421875 C .26708985 .07421875 .2952474 .08382162 .31933595 .103027347 C .34375 .12223307 .35709635 .14680989 .359375 .17675781 L .4453125 .17675781 C .44303385 .1295573 .42138673 .08821615 .3803711 .052734376 C .33935548 .017578125 .29085288 0 .23486328 0 C .1554362 0 .096354167 .026204428 .057617189 .07861328 C .019205729 .13102214 0 .19270833 0 .26367188 L 0 .2841797 C 0 .35514323 .019205729 .41682945 .057617189 .46923829 C .096354167 .52164718 .1554362 .54785159 .23486328 .54785159 C .29671226 .54785159 .3466797 .52945968 .38476563 .49267579 C .42285157 .45621745 .44303385 .41080729 .4453125 .3564453 L .359375 .3564453 C .35709635 .3889974 .34472657 .41666667 .32226563 .43945313 C .30013023 .4622396 .2709961 .4736328 .23486328 .4736328 C .1977539 .4736328 .1686198 .46419273 .14746094 .4453125 C .12662761 .42643229 .111816409 .4025065 .103027347 .37353517 C .094563808 .3445638 .09033203 .31477867 .09033203 .2841797 L .09033203 .26367188 C .09033203 .23274739 .094563808 .20279949 .103027347 .17382813 C .11149088 .14485677 .12613933 .12093099 .14697266 .10205078 C .16813152 .083496097 .19742839 .07421875 .23486328 .07421875 Z "/>
</symbol>
<use xlink:href="#font_2_48" transform="matrix(11,0,0,-11,182.04952,473.65748)"/>
<use xlink:href="#font_2_54" transform="matrix(11,0,0,-11,187.79415,473.65748)"/>
<use xlink:href="#font_2_52" transform="matrix(11,0,0,-11,194.29659,473.55006)"/>
<symbol id="font_2_10">
<path d="M .4873047 .22509766 L .2890625 .22509766 L .2890625 0 L .19873047 0 L .19873047 .22509766 L 0 .22509766 L 0 .3100586 L .19873047 .3100586 L .19873047 .5175781 L .2890625 .5175781 L .2890625 .3100586 L .4873047 .3100586 L .4873047 .22509766 Z "/>
</symbol>
<use xlink:href="#font_2_10" transform="matrix(11,0,0,-11,72.418949,498.21589)"/>
<use xlink:href="#font_2_17" transform="matrix(11,0,0,-11,78.75488,499.00007)"/>
<use xlink:href="#font_2_1a" transform="matrix(11,0,0,-11,85.277149,499.10749)"/>
<use xlink:href="#font_2_19" transform="matrix(11,0,0,-11,90.88467,499.00007)"/>
<use xlink:href="#font_2_1c" transform="matrix(11,0,0,-11,97.168949,499.00007)"/>
<use xlink:href="#font_2_18" transform="matrix(11,0,0,-11,103.410259,499.10749)"/>
<use xlink:href="#font_2_18" transform="matrix(11,0,0,-11,109.56026,499.10749)"/>
<use xlink:href="#font_2_1d" transform="matrix(11,0,0,-11,115.85156,499.10749)"/>
<use xlink:href="#font_2_1a" transform="matrix(11,0,0,-11,122.22715,499.10749)"/>
<use xlink:href="#font_2_1c" transform="matrix(11,0,0,-11,127.96895,499.00007)"/>
<use xlink:href="#font_2_1c" transform="matrix(11,0,0,-11,134.11894,499.00007)"/>
<use xlink:href="#font_2_1d" transform="matrix(11,0,0,-11,140.45157,499.10749)"/>
<use xlink:href="#font_2_19" transform="matrix(11,0,0,-11,146.33467,499.00007)"/>
<use xlink:href="#font_2_35" transform="matrix(11,0,0,-11,72.907718,549.9)"/>
<use xlink:href="#font_2_2a" transform="matrix(11,0,0,-11,79.85771,549.9)"/>
<use xlink:href="#font_2_39" transform="matrix(11,0,0,-11,85.46855,549.9)"/>
<use xlink:href="#font_2_2a" transform="matrix(11,0,0,-11,92.70772,549.9)"/>
<use xlink:href="#font_2_37" transform="matrix(11,0,0,-11,98.95772,549.9)"/>
<use xlink:href="#font_2_32" transform="matrix(11,0,0,-11,108.55772,549.9)"/>
<use xlink:href="#font_2_26" transform="matrix(11,0,0,-11,117.35576,549.9)"/>
<use xlink:href="#font_2_31" transform="matrix(11,0,0,-11,125.25772,549.9)"/>
<use xlink:href="#font_2_26" transform="matrix(11,0,0,-11,130.45577,549.9)"/>
<use xlink:href="#font_2_31" transform="matrix(11,0,0,-11,138.35773,549.9)"/>
<use xlink:href="#font_2_2a" transform="matrix(11,0,0,-11,144.30771,549.9)"/>
<use xlink:href="#font_2_30" transform="matrix(11,0,0,-11,72.907718,575.35006)"/>
<use xlink:href="#font_2_2a" transform="matrix(11,0,0,-11,79.85771,575.35006)"/>
<use xlink:href="#font_2_33" transform="matrix(11,0,0,-11,86.10771,575.35006)"/>
<use xlink:href="#font_2_3e" transform="matrix(11,0,0,-11,93.08057,575.35006)"/>
<use xlink:href="#font_2_26" transform="matrix(11,0,0,-11,99.75576,575.35006)"/>
<use xlink:href="#font_2_37" transform="matrix(11,0,0,-11,110.407718,575.35006)"/>
<use xlink:href="#font_2_26" transform="matrix(11,0,0,-11,116.50577,575.35006)"/>
<use xlink:href="#font_2_2e" transform="matrix(11,0,0,-11,124.48291,575.35006)"/>
<use xlink:href="#font_2_31" transform="matrix(11,0,0,-11,127.35771,575.35006)"/>
<use xlink:href="#font_2_3c" transform="matrix(11,0,0,-11,132.72763,575.35006)"/>
<use xlink:href="#font_2_26" transform="matrix(11,0,0,-11,142.35578,575.35006)"/>
<use xlink:href="#font_2_3e" transform="matrix(11,0,0,-11,149.43058,575.35006)"/>
<use xlink:href="#font_2_38" transform="matrix(11,0,0,-11,156.38507,575.45748)"/>
<use xlink:href="#font_2_28" transform="matrix(11,0,0,-11,72.64453,600.90756)"/>
<use xlink:href="#font_2_2d" transform="matrix(11,0,0,-11,80.05772,600.8001)"/>
<use xlink:href="#font_2_2e" transform="matrix(11,0,0,-11,87.93291,600.8001)"/>
<use xlink:href="#font_2_2a" transform="matrix(11,0,0,-11,90.85771,600.8001)"/>
<use xlink:href="#font_2_2b" transform="matrix(11,0,0,-11,97.10771,600.8001)"/>
<use xlink:href="#font_2_2a" transform="matrix(11,0,0,-11,105.907718,600.8001)"/>
<use xlink:href="#font_2_33" transform="matrix(11,0,0,-11,112.157718,600.8001)"/>
<use xlink:href="#font_2_2c" transform="matrix(11,0,0,-11,119.75528,600.90756)"/>
<use xlink:href="#font_2_2e" transform="matrix(11,0,0,-11,127.53291,600.8001)"/>
<use xlink:href="#font_2_33" transform="matrix(11,0,0,-11,130.45772,600.8001)"/>
<use xlink:href="#font_2_2a" transform="matrix(11,0,0,-11,138.25772,600.8001)"/>
<use xlink:href="#font_2_2a" transform="matrix(11,0,0,-11,144.50772,600.8001)"/>
<use xlink:href="#font_2_37" transform="matrix(11,0,0,-11,150.80771,600.8001)"/>
<use xlink:href="#font_2_32" transform="matrix(11,0,0,-11,160.35773,600.8001)"/>
<use xlink:href="#font_2_3b" transform="matrix(11,0,0,-11,169.15576,600.8001)"/>
<use xlink:href="#font_2_13" transform="matrix(11,0,0,-11,176.82344,600.86459)"/>
<use xlink:href="#font_2_3a" transform="matrix(11,0,0,-11,182.40195,600.90756)"/>
<use xlink:href="#font_2_2d" transform="matrix(11,0,0,-11,189.70772,600.8001)"/>
<use xlink:href="#font_2_3a" transform="matrix(11,0,0,-11,197.40195,600.90756)"/>
<use xlink:href="#font_2_37" transform="matrix(11,0,0,-11,204.70772,600.8001)"/>
<use xlink:href="#font_2_3a" transform="matrix(11,0,0,-11,211.35196,600.90756)"/>
<use xlink:href="#font_2_2e" transform="matrix(11,0,0,-11,221.48291,600.8001)"/>
<symbol id="font_2_5c">
<path d="M .70703127 .5283203 L .55371096 0 L .48046876 0 L .35205079 .39990235 L .22705078 0 L .15332031 0 L 0 .5283203 L .09033203 .5283203 L .19433594 .13378906 L .3173828 .5283203 L .39013673 .5283203 L .5151367 .12548828 L .6171875 .5283203 L .70703127 .5283203 Z "/>
</symbol>
<use xlink:href="#font_2_5c" transform="matrix(11,0,0,-11,72.23096,626.25009)"/>
<use xlink:href="#font_2_46" transform="matrix(11,0,0,-11,80.83545,626.3575)"/>
<symbol id="font_2_50">
<path d="M .3310547 0 L .14794922 .24511719 L .09082031 .18603516 L .09082031 0 L 0 0 L 0 .75 L .09082031 .75 L .09082031 .296875 L .13916016 .3544922 L .30322267 .5283203 L .41357423 .5283203 L .20751953 .30810548 L .4375 0 L .3310547 0 Z "/>
</symbol>
<use xlink:href="#font_2_50" transform="matrix(11,0,0,-11,86.95732,626.25009)"/>
<use xlink:href="#font_2_5c" transform="matrix(11,0,0,-11,92.03096,626.25009)"/>
<use xlink:href="#font_2_46" transform="matrix(11,0,0,-11,100.63545,626.3575)"/>
<use xlink:href="#font_2_47" transform="matrix(11,0,0,-11,106.75195,626.3575)"/>
<symbol id="font_2_5a">
<path d="M .32958985 .009765625 L .32763673 .06201172 C .2931315 .020670573 .24169922 0 .17333985 0 C .12158203 0 .0797526 .0152994799 .047851564 .045898439 C .015950522 .0764974 0 .12695313 0 .19726563 L 0 .53808596 L .09033203 .53808596 L .09033203 .19628906 C .09033203 .14876302 .100260417 .11686198 .12011719 .10058594 C .14029949 .084635417 .16276042 .076660159 .1875 .076660159 C .25553385 .076660159 .30143229 .10221354 .3251953 .15332031 L .3251953 .53808596 L .41601563 .53808596 L .41601563 .009765625 L .32958985 .009765625 Z "/>
</symbol>
<use xlink:href="#font_2_5a" transform="matrix(11,0,0,-11,112.88584,626.3575)"/>
<use xlink:href="#font_2_47" transform="matrix(11,0,0,-11,118.95195,626.3575)"/>
<use xlink:href="#font_2_4e" transform="matrix(11,0,0,-11,125.1127,626.25009)"/>
<symbol id="font_2_55">
<path d="M .24169922 .19335938 C .17822266 .19335938 .12792969 .21370442 .09082031 .25439454 L .09082031 0 L 0 0 L 0 .7314453 L .08300781 .7314453 L .087402347 .67333987 C .12451172 .7185872 .17545574 .74121096 .24023438 .74121096 C .30696617 .74121096 .3580729 .7164714 .3935547 .6669922 C .42903648 .617513 .44677735 .5524089 .44677735 .4716797 L .44677735 .46142579 C .44677735 .38427735 .4288737 .3203125 .3930664 .26953126 C .35758464 .21875 .3071289 .19335938 .24169922 .19335938 M .21386719 .66503909 C .15917969 .66503909 .11816406 .6407878 .09082031 .59228518 L .09082031 .33935548 C .118489589 .2915039 .15983074 .26757813 .21484375 .26757813 C .26367188 .26757813 .2993164 .28678385 .32177735 .3251953 C .3445638 .36360679 .35595704 .40901695 .35595704 .46142579 L .35595704 .4716797 C .35595704 .52408859 .3445638 .56933596 .32177735 .6074219 C .2993164 .6458333 .26334635 .66503909 .21386719 .66503909 Z "/>
</symbol>
<use xlink:href="#font_2_55" transform="matrix(11,0,0,-11,127.75195,628.48446)"/>
<use xlink:href="#font_2_25" transform="matrix(11,0,0,-11,133.70859,628.68319)"/>
<use xlink:href="#font_2_4c" transform="matrix(11,0,0,-11,143.571,628.5435)"/>
<use xlink:href="#font_2_52" transform="matrix(11,0,0,-11,149.9466,626.25009)"/>
<use xlink:href="#font_2_46" transform="matrix(11,0,0,-11,159.48545,626.3575)"/>
<use xlink:href="#font_2_4e" transform="matrix(11,0,0,-11,165.6127,626.25009)"/>
<use xlink:href="#font_2_51" transform="matrix(11,0,0,-11,168.33789,626.25009)"/>
<use xlink:href="#font_2_13" transform="matrix(11,0,0,-11,170.87345,626.3145)"/>
<use xlink:href="#font_2_48" transform="matrix(11,0,0,-11,173.49951,626.3575)"/>
<use xlink:href="#font_2_54" transform="matrix(11,0,0,-11,179.19416,626.3575)"/>
<use xlink:href="#font_2_52" transform="matrix(11,0,0,-11,185.6966,626.25009)"/>
<use xlink:href="#font_2_10" transform="matrix(11,0,0,-11,72.418949,650.9159)"/>
<use xlink:href="#font_2_17" transform="matrix(11,0,0,-11,78.75488,651.7001)"/>
<use xlink:href="#font_2_1a" transform="matrix(11,0,0,-11,85.277149,651.8075)"/>
<use xlink:href="#font_2_19" transform="matrix(11,0,0,-11,90.88467,651.7001)"/>
<use xlink:href="#font_2_1c" transform="matrix(11,0,0,-11,97.168949,651.7001)"/>
<use xlink:href="#font_2_17" transform="matrix(11,0,0,-11,103.404888,651.7001)"/>
<use xlink:href="#font_2_15" transform="matrix(11,0,0,-11,109.66768,651.8075)"/>
<use xlink:href="#font_2_1d" transform="matrix(11,0,0,-11,115.85156,651.8075)"/>
<use xlink:href="#font_2_17" transform="matrix(11,0,0,-11,121.904888,651.7001)"/>
<use xlink:href="#font_2_1c" transform="matrix(11,0,0,-11,127.96895,651.7001)"/>
<use xlink:href="#font_2_1b" transform="matrix(11,0,0,-11,134.41436,651.8075)"/>
<use xlink:href="#font_2_1d" transform="matrix(11,0,0,-11,140.45157,651.8075)"/>
<use xlink:href="#font_2_1a" transform="matrix(11,0,0,-11,146.87715,651.8075)"/>
</g>
</g>
</svg>
